<svg version="1.1" id="Layer_1" xmlns="http://www.w3.org/2000/svg" xmlns:xlink="http://www.w3.org/1999/xlink" x="0px" y="0px"
	 width="100%" viewBox="0 0 4500 4500" enable-background="new 0 0 4500 4500" xml:space="preserve">
<path fill="#FFFFFF" opacity="1.000000" stroke="none" 
	d="
M2392.000000,4504.000000 
	C1594.754761,4504.000000 799.509583,4504.000000 4.132191,4504.000000 
	C4.132191,3004.254395 4.132191,1504.508667 4.132191,4.381502 
	C1503.579346,4.381502 3003.158691,4.381502 4503.369141,4.381502 
	C4503.369141,1503.999756 4503.369141,3003.999756 4503.369141,4504.000000 
	C3800.506836,4504.000000 3097.253418,4504.000000 2392.000000,4504.000000 
M4166.843262,2226.000244 
	C4166.843262,2139.349609 4166.936035,2052.698486 4166.723633,1966.048218 
	C4166.697754,1955.450317 4166.221191,1944.593750 4163.933594,1934.306274 
	C4154.515137,1891.957275 4129.929199,1862.523193 4087.563477,1850.269043 
	C4076.912354,1847.188354 4065.197510,1846.885254 4053.967041,1846.850952 
	C3967.983887,1846.587524 3881.999512,1846.706177 3796.015625,1846.706177 
	C3716.030518,1846.706177 3636.035645,1847.478149 3556.064209,1846.432861 
	C3503.387939,1845.744385 3460.717529,1884.321289 3451.128662,1930.660889 
	C3448.854736,1941.650879 3447.810791,1953.088013 3447.790771,1964.322266 
	C3447.564941,2091.631348 3447.648193,2218.941406 3447.650146,2346.250977 
	C3447.650391,2348.916992 3447.627686,2351.583984 3447.674805,2354.249268 
	C3448.685303,2411.556396 3493.894043,2464.478760 3559.346924,2463.177002 
	C3629.972412,2461.772217 3700.647461,2462.859131 3771.301025,2462.859131 
	C3867.283203,2462.859131 3963.266357,2463.147217 4059.246826,2462.733643 
	C4105.281738,2462.535400 4137.184082,2439.611572 4156.586914,2398.469971 
	C4164.119141,2382.499268 4166.753418,2365.448730 4166.806152,2347.978516 
	C4166.924316,2308.652832 4166.843262,2269.326416 4166.843262,2226.000244 
M350.868073,2258.015137 
	C349.933777,2304.955566 355.606201,2351.095947 368.490204,2396.231689 
	C386.898987,2460.722168 417.536163,2518.144287 465.297333,2566.190186 
	C539.848694,2641.186279 653.430054,2670.320312 750.796692,2649.608887 
	C826.445374,2633.517090 889.117004,2595.389404 939.559265,2537.099121 
	C971.421326,2500.279541 993.739624,2458.184082 1006.609253,2411.168213 
	C1008.189941,2405.393799 1009.767151,2399.560547 1010.590149,2393.649170 
	C1011.987793,2383.611084 1005.076477,2378.472168 995.943481,2382.504639 
	C992.296021,2384.115234 988.853760,2386.186279 985.296082,2388.004883 
	C912.106689,2425.423584 835.303101,2437.261719 754.607666,2419.935059 
	C684.860291,2404.959229 624.780151,2372.059814 576.667786,2319.256592 
	C504.508423,2240.061768 476.275726,2146.777344 491.470337,2040.709595 
	C500.075409,1980.640991 523.977051,1927.078857 562.505127,1880.118530 
	C566.308289,1875.482666 570.479309,1871.109131 573.875610,1866.196289 
	C575.479614,1863.875977 575.653381,1860.566772 576.385132,1858.019165 
	C570.007263,1854.523804 565.891113,1857.846313 562.324829,1860.192505 
	C548.992981,1868.962891 535.109619,1877.224976 523.081116,1887.590088 
	C463.567749,1938.874634 418.432861,2001.038208 387.507263,2073.143555 
	C362.799164,2130.752441 351.190887,2191.327393 350.868073,2258.015137 
M1271.532227,2441.421875 
	C1272.691406,2438.302002 1273.908447,2435.202148 1275.001343,2432.059326 
	C1295.865723,2372.052734 1299.234741,2310.734863 1285.873535,2248.963379 
	C1270.115967,2176.113525 1232.507446,2115.702637 1174.662842,2068.895508 
	C1090.593262,2000.867432 995.371643,1978.932739 889.841553,2004.223633 
	C883.529968,2005.736206 877.496094,2008.875122 871.717224,2011.973755 
	C868.055115,2013.937378 867.561890,2019.475220 870.625305,2022.431030 
	C874.408630,2026.081055 878.492188,2029.655396 883.023315,2032.256958 
	C911.657898,2048.696777 936.008789,2070.317627 957.839478,2094.742432 
	C1004.054138,2146.448975 1031.489624,2207.201172 1039.253296,2275.855957 
	C1047.694702,2350.503418 1034.236694,2421.677246 999.488037,2488.692871 
	C931.950256,2618.944580 791.493591,2696.781982 647.497559,2677.689697 
	C638.380493,2676.480713 628.981323,2677.156250 619.723755,2677.383057 
	C616.531433,2677.461182 614.687805,2682.820801 616.773804,2685.257568 
	C618.474365,2687.244385 620.220947,2689.525635 622.461853,2690.656250 
	C630.775085,2694.850830 639.098267,2699.154541 647.779175,2702.471436 
	C722.438599,2731.000000 799.364441,2741.934570 879.075317,2732.832520 
	C933.193298,2726.653320 984.968384,2712.513428 1033.831055,2688.627441 
	C1142.033447,2635.733887 1222.003540,2555.235352 1271.532227,2441.421875 
M525.146545,2188.606445 
	C539.406738,2231.577393 561.422913,2269.985352 592.708008,2302.864990 
	C597.738953,2308.152344 603.230469,2313.062012 608.907898,2317.652832 
	C612.757446,2320.765625 619.009338,2319.296387 620.667603,2314.609619 
	C622.613953,2309.108643 623.698242,2303.161133 624.213745,2297.323730 
	C625.558899,2282.093506 625.792297,2266.749268 627.538391,2251.573242 
	C632.565125,2207.884277 647.344727,2167.541016 670.767578,2130.367188 
	C705.883118,2074.636475 754.177063,2033.912231 813.768677,2006.634521 
	C888.862671,1972.261108 967.380798,1961.918945 1047.654419,1981.931152 
	C1156.764282,2009.132202 1236.297363,2074.329346 1284.603271,2176.552979 
	C1287.447144,2182.571045 1289.846313,2188.867920 1293.354248,2194.470459 
	C1294.777954,2196.744385 1299.194702,2199.199219 1301.206299,2198.513184 
	C1303.545532,2197.714844 1305.556641,2193.743408 1306.207764,2190.815430 
	C1306.888916,2187.752441 1306.049072,2184.240967 1305.417480,2181.014893 
	C1302.349243,2165.341309 1299.908203,2149.491699 1295.838989,2134.075684 
	C1257.260742,1987.924683 1169.026367,1882.825684 1032.716675,1818.176147 
	C958.205017,1782.836426 879.195618,1771.010132 797.353271,1776.475830 
	C785.451660,1777.270874 773.527893,1779.351074 761.874695,1781.987061 
	C684.872925,1799.405884 622.150574,1839.594604 573.650879,1901.750122 
	C529.796997,1957.951538 509.684143,2022.630005 509.531616,2093.220459 
	C509.464172,2124.432617 514.169495,2155.591309 525.146545,2188.606445 
M2455.021729,2184.370850 
	C2544.300537,2184.370361 2633.579590,2184.379395 2722.858398,2184.356689 
	C2732.846680,2184.354004 2742.834961,2184.176514 2752.822998,2184.057129 
	C2753.477295,2184.049316 2754.168701,2183.944824 2754.770996,2183.704834 
	C2755.376953,2183.463379 2755.892822,2182.996826 2758.262451,2181.426025 
	C2768.379883,2165.016602 2779.562256,2146.933594 2790.624756,2128.777588 
	C2791.180664,2127.865234 2790.696045,2126.319336 2790.696045,2123.599121 
	C2784.565186,2123.333252 2778.182373,2122.823242 2771.799072,2122.815918 
	C2715.833008,2122.752441 2659.866699,2122.779297 2603.900635,2122.779053 
	C2554.597168,2122.778809 2505.293701,2122.826660 2455.990479,2122.704834 
	C2450.925049,2122.692383 2445.213867,2124.399902 2441.226562,2119.301025 
	C2440.967285,2117.976807 2440.490479,2116.673828 2440.489014,2115.370605 
	C2440.434326,2068.732666 2440.390869,2022.094727 2440.502930,1975.457275 
	C2440.508789,1973.062134 2441.901367,1970.670410 2442.868652,1967.571411 
	C2551.990967,1967.571411 2660.525879,1967.571411 2768.344482,1967.571411 
	C2785.381104,1944.762817 2806.111328,1909.910278 2810.340332,1897.208740 
	C2809.218750,1896.731323 2808.097412,1895.835449 2806.975830,1895.835815 
	C2663.742432,1895.877441 2520.509277,1895.984741 2377.275879,1896.105591 
	C2376.622314,1896.106079 2375.886719,1896.203735 2375.338135,1896.516479 
	C2374.790039,1896.828857 2374.428467,1897.468872 2372.733887,1899.367065 
	C2372.616455,1904.413818 2372.335205,1910.949463 2372.332031,1917.485229 
	C2372.299805,1986.110352 2372.312256,2054.735352 2372.312256,2123.360596 
	C2372.312256,2213.306152 2372.264404,2303.251709 2372.413574,2393.197021 
	C2372.424072,2399.555176 2370.170898,2406.490234 2375.297119,2412.536377 
	C2378.554932,2412.759277 2381.854492,2413.181885 2385.154053,2413.182861 
	C2510.411621,2413.218994 2635.669189,2413.231934 2760.926758,2413.154785 
	C2765.439697,2413.152100 2769.952148,2412.210693 2774.080078,2411.749512 
	C2786.604980,2391.754150 2798.687500,2372.614990 2810.551514,2353.341309 
	C2812.111328,2350.808105 2812.552734,2347.586182 2813.844482,2343.677490 
	C2807.787598,2343.319580 2803.235596,2342.844238 2798.681152,2342.818604 
	C2782.025146,2342.724365 2765.368164,2342.779053 2748.711670,2342.779053 
	C2653.436035,2342.778809 2558.160156,2342.830811 2462.884766,2342.674072 
	C2455.800293,2342.662354 2448.247070,2344.752197 2440.298096,2339.363770 
	C2440.673828,2289.472656 2439.654053,2238.944336 2441.067871,2188.408691 
	C2441.096436,2187.386230 2442.609619,2186.404785 2443.765137,2184.995605 
	C2446.015869,2184.810059 2448.627441,2184.594971 2455.021729,2184.370850 
M3220.113281,1909.876587 
	C3192.289307,1899.692139 3163.607422,1895.309570 3133.944580,1895.494263 
	C3069.987549,1895.892456 3006.026123,1895.616577 2942.066650,1895.616577 
	C2935.453857,1895.616577 2928.840820,1895.616577 2923.087646,1895.616577 
	C2898.930176,1929.887573 2885.152100,1954.067261 2882.118408,1967.716064 
	C2889.571777,1967.716064 2896.849365,1967.715820 2904.127197,1967.715942 
	C2981.411621,1967.717407 3058.699463,1967.287231 3135.979736,1967.852661 
	C3201.336914,1968.330933 3249.928711,1998.781738 3278.996826,2056.508301 
	C3311.221436,2120.502930 3310.592773,2186.879883 3279.552246,2251.026123 
	C3250.657227,2310.738770 3200.993652,2341.756592 3134.125732,2342.546631 
	C3076.836670,2343.223633 3019.533203,2342.708496 2962.236084,2342.648682 
	C2957.764648,2342.643799 2953.293457,2342.072021 2948.786865,2341.761230 
	C2945.680420,2333.685059 2946.937256,2326.291504 2946.925781,2319.107422 
	C2946.812744,2249.151611 2946.895264,2179.195801 2946.788086,2109.239990 
	C2946.779297,2103.513916 2948.191895,2097.416992 2944.218994,2090.830322 
	C2933.701416,2090.784180 2923.121338,2090.409668 2912.567627,2090.781494 
	C2901.534668,2091.170166 2890.244141,2088.953613 2879.506592,2092.402588 
	C2879.167725,2095.436523 2878.759033,2097.391602 2878.758057,2099.346924 
	C2878.718262,2200.616211 2878.700195,2301.885254 2878.763184,2403.154541 
	C2878.765137,2406.253174 2879.647461,2409.351074 2880.146973,2412.629150 
	C2883.881104,2412.910400 2886.480469,2413.276611 2889.080078,2413.277588 
	C2974.359619,2413.306885 3059.638916,2413.305664 3144.918457,2413.296875 
	C3163.018066,2413.294922 3180.704102,2410.497314 3198.070312,2405.450195 
	C3260.433105,2387.326904 3305.959717,2348.161865 3335.372070,2291.251221 
	C3376.689941,2211.303955 3380.794922,2127.701660 3350.607422,2043.529175 
	C3328.200684,1981.051636 3285.578857,1935.894531 3220.113281,1909.876587 
M1910.305542,2181.557861 
	C1954.301758,2181.476562 1998.298096,2181.356689 2042.294312,2181.323486 
	C2096.291748,2181.282959 2150.289551,2181.259277 2204.286621,2181.397461 
	C2210.029541,2181.412109 2216.349609,2179.646484 2222.692871,2186.025635 
	C2222.692871,2195.236816 2222.692871,2205.815674 2222.692871,2216.394775 
	C2222.692871,2227.727539 2222.692871,2239.060303 2222.692871,2250.393066 
	C2222.692871,2261.059326 2222.692871,2271.725342 2222.692871,2282.391602 
	C2222.692871,2293.057861 2222.692871,2303.723877 2222.692871,2314.390137 
	C2222.692871,2325.056396 2222.692871,2335.722412 2222.692871,2346.388672 
	C2222.692871,2357.721436 2222.587158,2369.055420 2222.723877,2380.386475 
	C2222.850342,2390.864502 2222.083496,2401.415039 2223.297852,2411.550049 
	C2246.257812,2414.395752 2276.132080,2413.974365 2290.821777,2410.555908 
	C2290.821777,2242.214355 2290.827148,2073.613037 2290.768311,1905.011597 
	C2290.767334,1902.485229 2289.965820,1899.959106 2289.582520,1897.697998 
	C2271.871826,1894.728882 2238.642090,1894.885986 2222.693115,1898.152222 
	C2222.693115,1904.433350 2222.693115,1911.032837 2222.693115,1917.632324 
	C2222.692871,1974.296265 2222.723877,2030.960327 2222.649414,2087.624268 
	C2222.640869,2094.039062 2222.037109,2100.453613 2221.692383,2107.198975 
	C2217.720703,2107.655273 2215.135742,2108.210693 2212.550293,2108.211914 
	C2113.221680,2108.259521 2013.892944,2108.270752 1914.564331,2108.190674 
	C1911.487427,2108.188232 1908.411377,2107.162842 1904.368164,2106.442139 
	C1904.368164,2098.846680 1904.368164,2092.262207 1904.368164,2085.677979 
	C1904.367798,2027.680664 1904.401733,1969.683472 1904.306763,1911.686279 
	C1904.298462,1906.625244 1903.441162,1901.565430 1902.900024,1895.649902 
	C1882.980347,1895.649902 1864.381226,1895.608398 1845.782837,1895.698730 
	C1843.261475,1895.710938 1840.743286,1896.384521 1839.151489,1896.616577 
	C1837.897095,1898.033447 1837.113647,1898.503174 1837.067871,1899.036377 
	C1836.728149,1902.992554 1836.323120,1906.961182 1836.325928,1910.925781 
	C1836.442993,2076.900879 1836.600098,2242.876221 1836.777588,2408.851318 
	C1836.778198,2409.489014 1837.021973,2410.206299 1837.373901,2410.740234 
	C1837.700439,2411.235596 1838.324829,2411.534912 1840.600220,2413.313721 
	C1849.381470,2413.313721 1859.988770,2413.605469 1870.572632,2413.233154 
	C1881.549927,2412.846924 1892.791260,2414.957764 1904.368164,2411.397705 
	C1904.368164,2403.704346 1904.368042,2397.083496 1904.368164,2390.462402 
	C1904.368164,2327.798584 1904.306885,2265.134766 1904.459717,2202.471436 
	C1904.475708,2195.966797 1902.609497,2189.104736 1910.305542,2181.557861 
M1517.917114,2342.677490 
	C1502.584106,2342.679688 1487.247559,2342.475586 1471.919067,2342.741211 
	C1456.070190,2343.015625 1440.126709,2341.430176 1424.316772,2343.971680 
	C1410.432617,2366.453613 1396.186890,2387.959229 1382.332886,2411.898926 
	C1387.408691,2412.532471 1390.528198,2413.256348 1393.648804,2413.261230 
	C1438.980591,2413.332275 1484.315552,2413.615479 1529.643433,2413.191162 
	C1557.732056,2412.928223 1585.351929,2408.676025 1612.352051,2400.624512 
	C1682.134277,2379.815186 1725.870850,2334.165039 1744.312744,2263.715820 
	C1751.976562,2234.439941 1754.380981,2204.566406 1754.616211,2174.668701 
	C1755.302979,2087.343506 1754.882080,2000.009399 1754.814209,1912.678833 
	C1754.810303,1907.520264 1754.092896,1902.362305 1753.726440,1897.457642 
	C1733.145874,1894.533081 1701.208740,1894.964844 1686.690918,1898.471680 
	C1686.690918,1905.422119 1686.690918,1912.691040 1686.690918,1919.959961 
	C1686.690918,1998.624268 1686.837524,2077.289062 1686.579468,2155.952637 
	C1686.520630,2173.896484 1685.302979,2191.850586 1684.182495,2209.772949 
	C1683.049438,2227.897949 1678.258301,2245.256348 1671.071289,2261.851562 
	C1661.575928,2283.777588 1647.023438,2301.599365 1626.768555,2314.649902 
	C1610.301147,2325.260010 1592.445190,2332.551270 1573.278320,2335.925781 
	C1556.274048,2338.919434 1539.012939,2340.454102 1517.917114,2342.677490 
M3531.203125,2693.474854 
	C3551.029053,2693.408447 3570.854736,2693.342041 3590.431396,2693.276367 
	C3593.553223,2673.707764 3593.263672,2640.701904 3589.887939,2626.544189 
	C3568.158203,2626.544189 3546.227295,2626.378418 3524.300781,2626.620361 
	C3514.634521,2626.727051 3514.362549,2627.350098 3508.642578,2641.165771 
	C3529.389648,2641.395264 3549.766357,2641.620605 3570.768066,2641.853027 
	C3572.297607,2654.076172 3574.107422,2664.917969 3569.617676,2676.139160 
	C3552.995361,2676.139160 3537.031982,2676.502197 3521.098877,2675.962891 
	C3514.584229,2675.742432 3507.833496,2674.387939 3501.713379,2672.130371 
	C3483.361328,2665.360596 3474.000244,2649.402588 3475.966797,2629.696777 
	C3477.607178,2613.255371 3490.339355,2599.506592 3508.152832,2596.187012 
	C3517.251709,2594.491455 3526.622314,2593.879395 3535.895752,2593.583496 
	C3549.190674,2593.159424 3562.526123,2593.058838 3575.812256,2593.601318 
	C3586.610107,2594.041748 3591.082764,2588.244141 3593.807617,2579.343506 
	C3591.955078,2578.289795 3590.928711,2577.199219 3589.895752,2577.193115 
	C3565.943848,2577.053223 3541.988037,2576.789551 3518.039551,2577.084473 
	C3505.232666,2577.241943 3493.065430,2580.669922 3481.956787,2587.253174 
	C3465.184082,2597.193115 3456.419189,2612.098633 3455.531250,2631.442871 
	C3454.135498,2661.831787 3475.819336,2686.994873 3507.665283,2691.975586 
	C3514.210449,2692.999512 3520.915771,2692.999512 3531.203125,2693.474854 
M3611.420898,2622.205566 
	C3611.420898,2633.533447 3611.332031,2644.862305 3611.445068,2656.188965 
	C3611.563232,2668.043457 3610.906250,2679.942871 3611.884766,2691.519775 
	C3628.526611,2693.960938 3694.739014,2694.506592 3722.930420,2692.561035 
	C3727.268311,2688.451172 3733.014893,2684.813965 3732.506592,2676.121094 
	C3715.402100,2676.121094 3698.769287,2676.413818 3682.151367,2676.038330 
	C3665.752686,2675.667969 3649.205322,2677.720947 3631.746094,2674.408936 
	C3632.715088,2663.833008 3630.337158,2654.059570 3633.566650,2643.388184 
	C3662.025146,2643.388184 3689.872803,2643.388184 3717.668945,2643.388184 
	C3721.482178,2638.535400 3724.717285,2634.418945 3729.057129,2628.895996 
	C3723.083740,2628.293945 3718.650391,2627.485840 3714.212402,2627.459961 
	C3691.557373,2627.328613 3668.900879,2627.455811 3646.245605,2627.349854 
	C3641.854248,2627.329346 3637.466064,2626.675537 3632.782715,2626.289551 
	C3631.649170,2615.193115 3631.132812,2605.392334 3633.215332,2594.521484 
	C3639.447266,2594.172852 3645.252441,2593.599365 3651.060791,2593.567627 
	C3672.383057,2593.451416 3693.708740,2593.683838 3715.029053,2593.440674 
	C3725.760986,2593.318359 3728.445312,2590.278320 3730.421875,2578.019775 
	C3707.131104,2576.041992 3627.797607,2576.500488 3612.384277,2578.825684 
	C3610.463135,2591.801270 3611.841797,2605.096191 3611.420898,2622.205566 
M3093.882812,2627.351807 
	C3080.817871,2626.847412 3067.608398,2628.481689 3053.451172,2625.955811 
	C3053.138916,2620.296143 3052.668945,2615.802734 3052.702148,2611.313232 
	C3052.739990,2606.205078 3053.227295,2601.100098 3053.581543,2594.903076 
	C3060.660156,2594.407715 3066.480957,2593.690674 3072.306641,2593.648926 
	C3092.939209,2593.500732 3113.574951,2593.721191 3134.207031,2593.527100 
	C3146.677002,2593.409668 3148.131836,2591.931152 3152.322998,2578.031494 
	C3151.116455,2577.668213 3149.910645,2576.990234 3148.703613,2576.987793 
	C3113.427002,2576.919922 3078.149902,2576.862061 3042.874023,2577.009277 
	C3039.823486,2577.021973 3036.779053,2578.462891 3034.076416,2579.152344 
	C3032.054443,2601.774170 3032.482666,2676.862793 3034.612793,2691.431396 
	C3035.790527,2691.997803 3036.965088,2693.051025 3038.146729,2693.059082 
	C3071.415771,2693.285156 3104.685791,2693.575684 3137.954102,2693.433838 
	C3147.158936,2693.394531 3150.129883,2689.524170 3153.383789,2676.070801 
	C3136.582520,2676.070801 3119.959961,2676.315674 3103.347900,2676.001953 
	C3086.847656,2675.690674 3070.254883,2677.440430 3053.674072,2674.715820 
	C3052.277100,2664.354004 3051.978516,2654.612793 3054.047363,2643.478760 
	C3082.965332,2643.260986 3111.406982,2643.046875 3140.056152,2642.831055 
	C3143.203613,2637.996826 3145.855957,2633.923096 3148.393311,2630.026123 
	C3146.764404,2628.663818 3146.258545,2627.870117 3145.742432,2627.863037 
	C3129.783691,2627.645264 3113.823730,2627.504639 3093.882812,2627.351807 
M4161.365234,2679.968018 
	C4160.735352,2674.999756 4156.796875,2676.177246 4153.827148,2676.166748 
	C4127.174805,2676.072998 4100.521973,2676.177002 4073.870361,2676.027100 
	C4069.455811,2676.002197 4065.046387,2675.027344 4059.451660,2674.347656 
	C4061.127686,2663.618408 4057.858154,2653.737305 4061.999512,2643.307129 
	C4090.327637,2643.307129 4118.208008,2643.307129 4145.136230,2643.307129 
	C4151.501953,2636.536377 4151.501953,2636.536377 4154.552734,2627.385010 
	C4143.621094,2627.385010 4133.053223,2627.385010 4122.484863,2627.385010 
	C4112.490234,2627.385010 4102.491699,2627.555908 4092.501953,2627.338135 
	C4082.077637,2627.111084 4071.530762,2628.404785 4060.777832,2626.177979 
	C4060.006104,2614.914551 4058.076904,2604.562988 4062.523682,2593.546631 
	C4069.616699,2593.546631 4076.244873,2593.547607 4082.873047,2593.546631 
	C4102.862305,2593.543701 4122.854980,2593.326660 4142.839844,2593.623291 
	C4153.475586,2593.781006 4157.715332,2587.604492 4161.104004,2578.407227 
	C4158.081055,2577.735107 4156.280273,2576.981201 4154.482910,2576.987549 
	C4117.851562,2577.117432 4081.219971,2577.330322 4044.588623,2577.574219 
	C4044.028076,2577.577881 4043.445801,2578.147705 4042.919922,2578.518799 
	C4042.377441,2578.901855 4041.891602,2579.364990 4040.749023,2580.322266 
	C4040.749023,2616.975098 4040.749023,2654.157227 4040.749023,2691.763428 
	C4043.806885,2692.414062 4046.345947,2693.415283 4048.888672,2693.425049 
	C4080.204590,2693.544434 4111.527832,2693.179932 4142.833984,2693.744629 
	C4151.850586,2693.907227 4155.990723,2688.847900 4161.365234,2679.968018 
M1568.211182,2687.261719 
	C1569.685181,2689.168213 1570.916382,2692.395752 1572.681274,2692.720215 
	C1577.023315,2693.518311 1581.610474,2692.981445 1586.497070,2692.981445 
	C1589.838379,2680.335205 1585.499634,2668.097168 1589.628662,2656.541504 
	C1611.693726,2656.541504 1632.849976,2656.541504 1653.358398,2656.541504 
	C1667.330078,2669.213135 1680.616211,2681.262939 1693.765259,2693.188477 
	C1701.976562,2692.999756 1709.778320,2695.239746 1717.966553,2691.079346 
	C1705.253784,2677.047852 1689.677612,2667.689697 1678.036865,2652.933350 
	C1682.734009,2650.967285 1686.423096,2649.547852 1690.007812,2647.901123 
	C1704.012695,2641.466553 1712.222534,2630.790039 1711.671875,2615.100830 
	C1711.100098,2598.811768 1702.563477,2587.249756 1687.114502,2582.160889 
	C1678.396973,2579.289062 1668.989014,2577.387451 1659.840576,2577.165527 
	C1634.549805,2576.551025 1609.231934,2577.031738 1583.925293,2577.156250 
	C1582.681641,2577.162354 1581.441772,2577.894043 1579.305786,2578.571533 
	C1576.116211,2582.135986 1571.409546,2585.613281 1570.429932,2593.523193 
	C1591.818359,2593.523193 1611.689819,2593.307129 1631.553467,2593.606934 
	C1642.837769,2593.777100 1654.169922,2594.288330 1665.361816,2595.633301 
	C1671.125488,2596.325928 1677.193848,2598.248535 1682.137329,2601.243896 
	C1693.769653,2608.292236 1693.901733,2623.573730 1682.659180,2631.050537 
	C1678.873779,2633.567871 1674.354248,2635.569580 1669.910034,2636.382080 
	C1661.445312,2637.928955 1652.805664,2639.102051 1644.216064,2639.269043 
	C1623.577148,2639.669922 1602.924683,2639.318604 1582.279053,2639.464111 
	C1577.885864,2639.494873 1573.498535,2640.346191 1568.142456,2640.923828 
	C1568.142456,2655.934570 1568.142456,2669.873535 1568.211182,2687.261719 
M1499.729370,2642.653809 
	C1503.039917,2647.640381 1506.599365,2652.482666 1509.593262,2657.652588 
	C1512.760254,2663.122314 1518.202637,2667.544678 1518.923950,2676.144043 
	C1492.924927,2676.144043 1467.895386,2676.144043 1442.934570,2676.144043 
	C1439.375732,2681.561768 1436.468506,2685.948975 1433.663452,2690.400879 
	C1433.555420,2690.572266 1434.427856,2691.361328 1436.043579,2693.310547 
	C1447.947998,2693.664307 1461.137451,2693.397949 1474.310913,2693.443604 
	C1488.283447,2693.491943 1502.261108,2693.680176 1516.227661,2693.388916 
	C1529.242310,2693.117432 1542.415283,2694.737305 1556.049805,2692.015625 
	C1554.545532,2688.876221 1553.900635,2686.968750 1552.818237,2685.354736 
	C1530.593628,2652.217773 1508.328369,2619.107666 1486.033813,2586.017334 
	C1484.558228,2583.827148 1482.988281,2581.629395 1481.110962,2579.794434 
	C1475.564819,2574.373535 1466.807007,2574.085938 1461.359253,2579.461182 
	C1458.075684,2582.701172 1455.292236,2586.523926 1452.676392,2590.352783 
	C1431.294067,2621.650391 1409.996826,2653.006104 1388.703857,2684.364746 
	C1387.353271,2686.353760 1386.255615,2688.514404 1383.974976,2692.419189 
	C1393.026245,2693.437012 1399.937378,2694.621582 1407.793945,2691.589355 
	C1427.970703,2661.931152 1448.501709,2631.751953 1469.542847,2600.823242 
	C1481.931396,2612.979492 1488.698975,2627.599121 1499.729370,2642.653809 
M2358.212646,2693.454102 
	C2383.469482,2693.323975 2408.726562,2693.199463 2433.983154,2693.027832 
	C2434.546875,2693.024170 2435.170166,2692.562500 2435.651367,2692.173096 
	C2436.155029,2691.765381 2436.520508,2691.187012 2437.308105,2690.255127 
	C2436.072754,2688.163818 2434.849121,2685.843994 2433.399658,2683.675049 
	C2412.352295,2652.175537 2391.372559,2620.630371 2370.166504,2589.238037 
	C2357.555420,2570.568848 2348.430664,2570.471436 2335.818115,2588.800781 
	C2314.720947,2619.460449 2293.812744,2650.250488 2272.866943,2681.014160 
	C2270.756348,2684.114014 2268.931152,2687.408203 2266.273193,2691.759277 
	C2275.041748,2694.426514 2281.998047,2693.569580 2289.196777,2692.322266 
	C2293.122070,2686.584473 2296.879395,2681.140869 2300.587158,2675.663818 
	C2315.489014,2653.650146 2330.310059,2631.581299 2345.342773,2609.657471 
	C2347.417969,2606.631104 2350.515137,2604.305420 2353.256348,2601.536621 
	C2375.715088,2631.054199 2393.595703,2659.254395 2399.331299,2674.015381 
	C2398.978271,2674.526367 2398.626221,2675.484131 2398.271729,2675.485107 
	C2374.356201,2675.555420 2350.440430,2675.548584 2327.625977,2675.548584 
	C2319.456787,2683.565186 2319.478760,2683.582275 2316.403809,2693.453613 
	C2329.300049,2693.453613 2341.808350,2693.453613 2358.212646,2693.454102 
M3817.436279,2628.578613 
	C3803.952637,2615.731934 3790.495850,2602.856934 3776.970459,2590.054199 
	C3772.627930,2585.943604 3768.416016,2581.590820 3763.590332,2578.118164 
	C3755.976562,2572.639160 3747.352783,2576.357666 3745.621826,2585.779785 
	C3744.789551,2590.310303 3744.923828,2595.049316 3744.911865,2599.694580 
	C3744.849854,2623.655762 3744.882080,2647.617188 3744.881592,2671.578369 
	C3744.881592,2678.103516 3744.881592,2684.628906 3744.881592,2690.693359 
	C3751.921875,2694.426758 3757.435303,2694.760254 3764.241455,2690.195312 
	C3764.241455,2664.354248 3764.236328,2637.802979 3764.279785,2611.251709 
	C3764.280518,2610.747070 3764.765869,2610.140137 3765.189209,2609.766846 
	C3765.673828,2609.338623 3766.342285,2609.118164 3767.501221,2608.506348 
	C3769.298340,2609.964844 3771.405273,2611.448486 3773.250732,2613.206543 
	C3795.405029,2634.314697 3817.478760,2655.507080 3839.674316,2676.571533 
	C3845.451660,2682.054443 3851.266113,2687.588135 3857.635010,2692.330811 
	C3863.303955,2696.552246 3871.750244,2693.305176 3873.862061,2686.645508 
	C3874.649902,2684.161377 3875.047607,2681.445312 3875.046143,2678.835449 
	C3875.028076,2646.893799 3874.918457,2614.952393 3874.742188,2583.010986 
	C3874.735596,2581.816895 3873.805176,2580.628174 3873.083008,2578.906982 
	C3867.827881,2576.120117 3862.452393,2575.508301 3856.084717,2580.492676 
	C3856.084717,2589.249268 3856.084717,2598.498779 3856.084717,2607.748047 
	C3856.084717,2616.400635 3856.348145,2625.063721 3856.011963,2633.703125 
	C3855.664307,2642.637939 3857.522217,2651.840576 3854.120361,2662.333740 
	C3840.631104,2652.027100 3830.166016,2641.162598 3817.436279,2628.578613 
M2820.466797,2637.683838 
	C2801.765137,2619.643311 2783.080322,2601.584961 2764.340088,2583.584229 
	C2761.953369,2581.291748 2759.507324,2578.913086 2756.691650,2577.244385 
	C2749.512451,2572.989014 2741.398682,2577.122803 2740.374268,2585.318848 
	C2740.209473,2586.636475 2740.207275,2587.980957 2740.211426,2589.312500 
	C2740.315674,2622.635010 2740.410400,2655.957764 2740.638672,2689.279297 
	C2740.645752,2690.320312 2742.052490,2691.351807 2743.333984,2693.111572 
	C2747.246094,2692.888184 2751.639648,2692.637207 2757.447510,2692.305420 
	C2757.447510,2684.719727 2757.447510,2678.163818 2757.447510,2671.607666 
	C2757.447510,2664.275146 2757.447510,2656.942871 2757.447510,2649.610352 
	C2757.447510,2642.944580 2757.227783,2636.269287 2757.508301,2629.615234 
	C2757.799072,2622.716797 2756.193359,2615.479736 2759.908203,2607.105469 
	C2766.556396,2611.857178 2771.287598,2616.239258 2775.984131,2620.745605 
	C2798.575928,2642.422607 2821.213623,2664.052002 2843.913086,2685.616211 
	C2846.771484,2688.331787 2849.825928,2691.049072 2853.253418,2692.911377 
	C2859.531494,2696.322754 2867.170410,2692.047607 2868.184326,2684.916748 
	C2868.464111,2682.948486 2868.451172,2680.928467 2868.451904,2678.932373 
	C2868.464600,2648.269531 2868.513916,2617.606445 2868.367188,2586.944336 
	C2868.352295,2583.828857 2867.128662,2580.718994 2866.353027,2577.075439 
	C2861.079102,2577.455322 2856.628662,2577.776123 2851.318604,2578.158691 
	C2851.039795,2584.920654 2850.618652,2590.826416 2850.585449,2596.734131 
	C2850.480713,2615.397949 2850.567871,2634.062500 2850.459473,2652.726318 
	C2850.441162,2655.877197 2850.769043,2659.537598 2845.297852,2660.694092 
	C2838.006104,2653.957520 2830.270752,2646.810791 2820.466797,2637.683838 
M3897.781494,2663.652344 
	C3910.605713,2682.751465 3928.781982,2692.355713 3951.521484,2692.828857 
	C3973.392822,2693.284180 3995.280762,2692.927490 4016.644287,2692.927490 
	C4021.476562,2688.440430 4025.583496,2684.347168 4027.840088,2676.754150 
	C4022.660400,2676.493408 4018.972900,2676.160645 4015.284424,2676.146973 
	C3998.003174,2676.083008 3980.721924,2676.147217 3963.440918,2676.085938 
	C3951.287842,2676.042969 3939.702393,2673.509521 3929.021973,2667.549561 
	C3919.907715,2662.463379 3913.792236,2655.050781 3911.154785,2644.740234 
	C3905.413330,2622.297363 3919.091064,2601.019531 3943.379883,2596.114502 
	C3952.418701,2594.289307 3961.821777,2593.923828 3971.082275,2593.625977 
	C3983.697998,2593.220459 3996.342285,2593.270996 4008.962891,2593.589600 
	C4019.441895,2593.854004 4024.205322,2588.152832 4026.859131,2579.208252 
	C4025.080566,2578.230957 4024.062744,2577.186279 4023.038574,2577.180176 
	C3999.113770,2577.037109 3975.186523,2576.836914 3951.263184,2577.032227 
	C3940.510254,2577.119873 3930.092041,2579.776611 3920.594238,2584.764648 
	C3904.491943,2593.221191 3893.790039,2605.763184 3890.545166,2624.452393 
	C3888.267822,2637.569092 3890.806152,2649.418213 3897.781494,2663.652344 
M2108.348145,2615.653076 
	C2116.347168,2602.775146 2128.335938,2596.589844 2143.060547,2595.212646 
	C2150.992432,2594.470947 2158.950195,2593.774170 2166.908447,2593.593018 
	C2178.885010,2593.320312 2190.879639,2593.264404 2202.853760,2593.589111 
	C2213.491211,2593.877197 2217.705078,2587.579834 2220.828613,2579.031982 
	C2218.641846,2578.027344 2217.533203,2577.077148 2216.420654,2577.072021 
	C2193.121094,2576.963867 2169.820312,2576.851562 2146.521484,2576.989014 
	C2135.745361,2577.052490 2125.473145,2579.784912 2115.631348,2584.143311 
	C2074.798584,2602.225830 2073.736572,2655.939209 2105.872314,2679.505127 
	C2116.298340,2687.150635 2127.885986,2692.260742 2140.899902,2692.470459 
	C2164.117432,2692.844727 2187.345703,2692.575684 2210.381348,2692.575684 
	C2215.128174,2688.643311 2219.495117,2684.791260 2220.650146,2676.850098 
	C2215.804688,2676.562500 2212.092529,2676.168701 2208.378906,2676.152100 
	C2192.402100,2676.080811 2176.399414,2676.661865 2160.456543,2675.919922 
	C2150.595215,2675.461182 2140.442627,2674.249512 2131.093018,2671.267822 
	C2111.631592,2665.062012 2102.572510,2650.476807 2104.077881,2630.036133 
	C2104.363281,2626.160889 2105.997314,2622.385010 2108.348145,2615.653076 
M1962.104492,2576.929443 
	C1950.781616,2576.932617 1939.454590,2576.761719 1928.138428,2577.038086 
	C1924.393555,2577.129639 1920.676758,2578.372314 1917.229004,2579.034668 
	C1915.365601,2601.868408 1915.785522,2676.028809 1917.906738,2692.439941 
	C1923.466309,2692.439941 1929.175659,2692.439941 1935.519897,2692.439941 
	C1938.265747,2677.219482 1934.784058,2661.824219 1937.969727,2645.898926 
	C1943.790527,2645.428711 1948.915527,2644.696777 1954.045898,2644.656982 
	C1972.693970,2644.511719 1991.346436,2644.773193 2009.992554,2644.531738 
	C2021.045166,2644.388672 2022.083984,2643.132080 2026.819458,2628.121094 
	C2011.935059,2628.121094 1997.429932,2628.414062 1982.942139,2628.040527 
	C1967.849121,2627.651611 1952.609863,2629.782715 1937.442261,2626.529297 
	C1937.442261,2615.980469 1937.442261,2606.173828 1937.442261,2595.697998 
	C1941.281982,2594.905029 1944.412354,2593.839111 1947.585938,2593.690430 
	C1954.232788,2593.378662 1960.902344,2593.532959 1967.562500,2593.526123 
	C1984.213745,2593.508545 2000.869263,2593.736084 2017.514526,2593.416260 
	C2027.542236,2593.223877 2031.146606,2588.843018 2031.991577,2576.929932 
	C2009.991089,2576.929932 1988.026611,2576.929932 1962.104492,2576.929443 
M1863.510376,2577.797119 
	C1852.901611,2577.500977 1842.293457,2576.985840 1831.683838,2576.949463 
	C1799.118164,2576.837158 1766.551758,2576.908691 1733.364868,2576.908691 
	C1729.774414,2581.642334 1726.373779,2586.125732 1721.434448,2592.637939 
	C1742.124756,2594.647461 1760.583130,2592.434082 1779.694458,2594.326904 
	C1780.146362,2600.358154 1780.841064,2605.525635 1780.868164,2610.696533 
	C1780.990356,2633.987793 1780.887573,2657.280029 1780.960083,2680.571777 
	C1780.971924,2684.346436 1781.458496,2688.119629 1781.763428,2692.427734 
	C1788.797974,2692.427734 1794.432617,2692.427734 1801.539673,2692.427734 
	C1801.539673,2686.152344 1801.538818,2680.954834 1801.539795,2675.757324 
	C1801.544189,2653.131104 1801.438599,2630.503662 1801.650024,2607.879395 
	C1801.690918,2603.505859 1802.972412,2599.144043 1803.881592,2593.545898 
	C1817.499756,2593.545898 1830.094238,2593.014893 1842.621216,2593.707764 
	C1853.315674,2594.298828 1860.628784,2590.804688 1863.510376,2577.797119 
M2907.570801,2576.991211 
	C2904.907715,2576.993408 2902.226318,2577.199463 2899.584717,2576.962891 
	C2888.265625,2575.949463 2883.643311,2582.761475 2879.572998,2593.454346 
	C2890.514893,2593.454346 2899.752441,2593.221680 2908.972412,2593.520264 
	C2918.085205,2593.815674 2927.416504,2592.112549 2937.458740,2595.359375 
	C2937.842773,2601.671387 2938.469727,2607.494873 2938.504395,2613.322021 
	C2938.650635,2637.953857 2938.579102,2662.587158 2938.743652,2687.218994 
	C2938.755371,2688.973877 2940.026123,2690.720215 2941.035400,2693.297607 
	C2946.196289,2692.955322 2951.199951,2692.623291 2957.447510,2692.208984 
	C2957.447510,2685.820801 2957.446777,2680.598145 2957.447998,2675.375732 
	C2957.452881,2652.739502 2957.341064,2630.102295 2957.565918,2607.468262 
	C2957.609131,2603.113281 2958.972900,2598.771729 2959.897949,2593.442139 
	C2975.003174,2593.442139 2988.940918,2593.161621 3002.860840,2593.534180 
	C3013.348633,2593.814697 3018.255127,2588.318848 3020.905273,2579.737305 
	C3019.794678,2578.443115 3019.415771,2577.611572 3019.030762,2577.608887 
	C2983.099121,2577.362305 2947.166992,2577.178955 2907.570801,2576.991211 
M3266.262207,2693.374512 
	C3275.288086,2688.437256 3275.375244,2688.506104 3279.579590,2676.882568 
	C3269.604248,2675.474365 3259.848145,2676.275146 3250.174561,2676.151855 
	C3239.539307,2676.016357 3228.897705,2676.280518 3218.264893,2676.074219 
	C3208.465332,2675.884277 3198.553467,2677.081787 3187.566162,2674.940674 
	C3186.176270,2642.624023 3187.931885,2610.928467 3186.604004,2579.908203 
	C3179.773926,2575.926514 3174.271484,2576.091553 3168.777588,2579.026123 
	C3166.421143,2600.745117 3166.922852,2678.068115 3169.725098,2693.503662 
	C3200.595215,2693.503662 3231.729248,2693.503662 3266.262207,2693.374512 
M2552.758301,2692.276367 
	C2557.442871,2688.568359 2560.989258,2684.128418 2563.808594,2676.428711 
	C2531.871582,2675.576416 2501.660645,2676.761719 2470.340332,2675.665039 
	C2470.031250,2667.905518 2469.591309,2661.436279 2469.548340,2654.964355 
	C2469.388916,2631.044922 2469.406006,2607.124268 2469.189209,2583.205566 
	C2469.173340,2581.467529 2467.817871,2579.741455 2466.551270,2576.747070 
	C2461.468750,2577.382080 2456.403564,2577.977051 2451.358154,2578.708252 
	C2450.894775,2578.775146 2450.557861,2579.713867 2450.162109,2580.247803 
	C2448.292969,2599.726562 2448.513672,2676.009033 2450.482422,2691.275635 
	C2451.650391,2691.863281 2452.815430,2692.957520 2453.986816,2692.964355 
	C2485.871582,2693.154297 2517.756592,2693.232910 2552.758301,2692.276367 
M3292.944092,2618.200439 
	C3293.031982,2641.469482 3293.098145,2664.738770 3293.275146,2688.007080 
	C3293.283936,2689.166992 3294.262939,2690.319580 3295.239990,2692.460938 
	C3298.569824,2692.779541 3302.436035,2693.455811 3306.304932,2693.469727 
	C3332.240234,2693.563721 3358.192627,2692.972412 3384.104736,2693.756348 
	C3396.242188,2694.123291 3402.254150,2688.777588 3406.728516,2676.770020 
	C3401.642334,2676.505615 3397.961914,2676.157227 3394.280762,2676.148438 
	C3371.669922,2676.094482 3349.058838,2676.196289 3326.448975,2676.045654 
	C3322.108154,2676.016602 3317.773193,2675.095459 3312.579590,2674.485352 
	C3312.579590,2666.706543 3312.588135,2660.093506 3312.578125,2653.480713 
	C3312.543213,2630.206055 3312.542969,2606.930908 3312.383301,2583.656982 
	C3312.371094,2581.868164 3311.222900,2580.087158 3310.479492,2577.947266 
	C3305.160645,2577.947266 3300.122070,2577.947266 3294.244385,2577.947266 
	C3291.763916,2590.554932 3293.446533,2602.492188 3292.944092,2618.200439 
M3419.368164,2603.124512 
	C3419.368408,2617.678711 3419.312500,2632.233398 3419.384277,2646.787354 
	C3419.458740,2661.892090 3419.047119,2677.019043 3419.712158,2693.506104 
	C3426.721191,2693.085693 3432.318848,2692.749756 3437.675293,2692.428467 
	C3440.325439,2665.738281 3439.697510,2592.473633 3436.822754,2578.521973 
	C3431.229004,2576.409424 3425.690674,2575.566162 3419.368408,2580.217773 
	C3419.368408,2586.340576 3419.368408,2592.898682 3419.368164,2603.124512 
M2067.116699,2591.714355 
	C2066.637207,2587.254395 2066.157715,2582.794434 2065.709229,2578.625488 
	C2058.996094,2576.622314 2053.375977,2575.388428 2047.563354,2580.190430 
	C2047.563354,2616.432129 2047.545776,2652.769531 2047.647705,2689.106445 
	C2047.650757,2690.195312 2048.904297,2691.280518 2049.679443,2692.537354 
	C2055.353760,2693.557129 2061.204834,2695.395020 2067.116699,2689.810791 
	C2067.116699,2658.764404 2067.116699,2627.060791 2067.116699,2591.714355 
M2234.712891,2641.923340 
	C2234.776367,2658.397217 2234.576172,2674.879150 2234.826416,2690.960205 
	C2241.807129,2694.035400 2247.226318,2694.113525 2252.325195,2691.494141 
	C2254.136719,2663.023682 2253.714355,2594.511475 2251.575684,2578.266602 
	C2246.753906,2578.266602 2241.785645,2578.266602 2237.091553,2578.266602 
	C2236.180664,2579.961670 2235.040771,2581.100830 2235.029053,2582.251709 
	C2234.839111,2600.823242 2234.792480,2619.395752 2234.712891,2641.923340 
M2720.483154,2683.910645 
	C2720.350830,2650.061768 2720.235107,2616.212646 2720.015625,2582.364258 
	C2720.008057,2581.210205 2718.958984,2580.062988 2718.077393,2578.263428 
	C2712.792969,2576.541260 2707.255615,2575.938721 2701.942383,2578.899170 
	C2699.197266,2598.849854 2699.558594,2676.853027 2702.620850,2693.068115 
	C2706.895752,2693.068115 2711.508789,2693.597412 2715.885010,2692.809814 
	C2717.657715,2692.490723 2718.913818,2689.299805 2720.483154,2683.910645 
M1896.491455,2661.612793 
	C1896.461426,2635.754150 1896.467651,2609.895264 1896.323242,2584.037354 
	C1896.313110,2582.215820 1895.190796,2580.400635 1894.522339,2578.393066 
	C1888.563965,2576.705322 1882.978638,2575.640381 1877.454712,2579.421875 
	C1877.019043,2581.509766 1876.280273,2583.399414 1876.281738,2585.288330 
	C1876.309326,2619.757568 1876.408447,2654.226807 1876.604126,2688.695557 
	C1876.610107,2689.758057 1877.814575,2690.813721 1878.702759,2692.269775 
	C1884.109741,2692.269775 1889.743896,2692.269775 1896.491577,2692.269775 
	C1896.491577,2682.561279 1896.491577,2674.009033 1896.491455,2661.612793 
z"/>
<path fill="#033966" opacity="1.000000" stroke="none" 
	d="
M4166.843262,2228.000488 
	C4166.843262,2269.326416 4166.924316,2308.652832 4166.806152,2347.978516 
	C4166.753418,2365.448730 4164.119141,2382.499268 4156.586914,2398.469971 
	C4137.184082,2439.611572 4105.281738,2462.535400 4059.246826,2462.733643 
	C3963.266357,2463.147217 3867.283203,2462.859131 3771.301025,2462.859131 
	C3700.647461,2462.859131 3629.972412,2461.772217 3559.346924,2463.177002 
	C3493.894043,2464.478760 3448.685303,2411.556396 3447.674805,2354.249268 
	C3447.627686,2351.583984 3447.650391,2348.916992 3447.650146,2346.250977 
	C3447.648193,2218.941406 3447.564941,2091.631348 3447.790771,1964.322266 
	C3447.810791,1953.088013 3448.854736,1941.650879 3451.128662,1930.660889 
	C3460.717529,1884.321289 3503.387939,1845.744385 3556.064209,1846.432861 
	C3636.035645,1847.478149 3716.030518,1846.706177 3796.015625,1846.706177 
	C3881.999512,1846.706177 3967.983887,1846.587524 4053.967041,1846.850952 
	C4065.197510,1846.885254 4076.912354,1847.188354 4087.563477,1850.269043 
	C4129.929199,1862.523193 4154.515137,1891.957275 4163.933594,1934.306274 
	C4166.221191,1944.593750 4166.697754,1955.450317 4166.723633,1966.048218 
	C4166.936035,2052.698486 4166.843262,2139.349609 4166.843262,2228.000488 
M3610.898682,2284.892334 
	C3659.907959,2207.895508 3708.873291,2130.870605 3758.022217,2053.962891 
	C3761.420898,2048.644531 3763.425537,2041.822144 3770.750488,2038.835083 
	C3773.873291,2043.451172 3776.959473,2047.752563 3779.776367,2052.223633 
	C3790.074463,2068.568848 3800.270020,2084.978760 3810.526367,2101.350342 
	C3845.185303,2156.674072 3879.896484,2211.965088 3914.431885,2267.365479 
	C3917.015381,2271.510498 3921.822510,2275.328125 3918.911377,2282.803711 
	C3912.507324,2282.803711 3905.988037,2282.803711 3899.468750,2282.803711 
	C3836.805908,2282.803711 3774.143311,2282.750244 3711.480713,2282.876465 
	C3704.267090,2282.891113 3696.802979,2281.334229 3689.174561,2285.194824 
	C3680.753418,2298.024170 3671.982910,2311.364990 3663.288086,2324.754639 
	C3663.072510,2325.086670 3663.696289,2325.963623 3664.510254,2328.144531 
	C3666.638916,2328.411621 3669.693848,2329.057129 3672.764648,2329.143066 
	C3764.317383,2331.701416 3996.536377,2330.263428 4014.911377,2326.889160 
	C4013.500977,2321.603760 4010.141846,2317.477051 4007.393311,2313.137207 
	C3941.095703,2208.453125 3874.759277,2103.793457 3808.405518,1999.144531 
	C3805.910156,1995.209351 3803.490479,1991.158813 3800.494385,1987.620239 
	C3784.197510,1968.372559 3760.630371,1967.432861 3743.017822,1985.567139 
	C3738.431885,1990.288940 3734.722656,1995.960938 3731.125244,2001.529053 
	C3703.286377,2044.617554 3675.573242,2087.787354 3647.821533,2130.932129 
	C3608.178223,2192.565430 3568.493164,2254.171631 3529.005615,2315.904541 
	C3526.781982,2319.380859 3521.847412,2322.679688 3525.880127,2328.789307 
	C3544.617432,2329.333984 3563.778076,2329.662842 3582.756836,2328.643066 
	C3592.021729,2314.185059 3600.639404,2300.736572 3610.898682,2284.892334 
M4094.962158,2305.061035 
	C4094.962158,2203.233398 4095.003662,2101.405762 4094.871826,1999.578369 
	C4094.862549,1992.520386 4096.646484,1985.038696 4091.846436,1977.043213 
	C4084.194336,1977.043213 4076.299316,1976.888672 4068.412842,1977.085083 
	C4059.943115,1977.295898 4051.315186,1976.014404 4044.265381,1977.940552 
	C4042.708740,1979.858765 4042.047363,1980.313721 4041.934570,1980.878540 
	C4041.545410,1982.823608 4041.110840,1984.806885 4041.112061,1986.775513 
	C4041.180420,2099.241699 4041.290039,2211.707764 4041.418945,2324.174072 
	C4041.419678,2324.816406 4041.646484,2325.511719 4041.950684,2326.084961 
	C4042.235352,2326.621826 4042.763428,2327.029541 4043.184570,2327.493896 
	C4061.846191,2330.473633 4080.633789,2330.163086 4094.961670,2326.385010 
	C4094.961670,2320.704834 4094.961670,2314.753174 4094.962158,2305.061035 
z"/>
<path fill="#0298CD" opacity="1.000000" stroke="none" 
	d="
M350.867859,2256.023926 
	C351.190887,2191.327393 362.799164,2130.752441 387.507263,2073.143555 
	C418.432861,2001.038208 463.567749,1938.874634 523.081116,1887.590088 
	C535.109619,1877.224976 548.992981,1868.962891 562.324829,1860.192505 
	C565.891113,1857.846313 570.007263,1854.523804 576.385132,1858.019165 
	C575.653381,1860.566772 575.479614,1863.875977 573.875610,1866.196289 
	C570.479309,1871.109131 566.308289,1875.482666 562.505127,1880.118530 
	C523.977051,1927.078857 500.075409,1980.640991 491.470337,2040.709595 
	C476.275726,2146.777344 504.508423,2240.061768 576.667786,2319.256592 
	C624.780151,2372.059814 684.860291,2404.959229 754.607666,2419.935059 
	C835.303101,2437.261719 912.106689,2425.423584 985.296082,2388.004883 
	C988.853760,2386.186279 992.296021,2384.115234 995.943481,2382.504639 
	C1005.076477,2378.472168 1011.987793,2383.611084 1010.590149,2393.649170 
	C1009.767151,2399.560547 1008.189941,2405.393799 1006.609253,2411.168213 
	C993.739624,2458.184082 971.421326,2500.279541 939.559265,2537.099121 
	C889.117004,2595.389404 826.445374,2633.517090 750.796692,2649.608887 
	C653.430054,2670.320312 539.848694,2641.186279 465.297333,2566.190186 
	C417.536163,2518.144287 386.898987,2460.722168 368.490204,2396.231689 
	C355.606201,2351.095947 349.933777,2304.955566 350.867859,2256.023926 
z"/>
<path fill="#0298CD" opacity="1.000000" stroke="none" 
	d="
M1270.952881,2442.852783 
	C1222.003540,2555.235352 1142.033447,2635.733887 1033.831055,2688.627441 
	C984.968384,2712.513428 933.193298,2726.653320 879.075317,2732.832520 
	C799.364441,2741.934570 722.438599,2731.000000 647.779175,2702.471436 
	C639.098267,2699.154541 630.775085,2694.850830 622.461853,2690.656250 
	C620.220947,2689.525635 618.474365,2687.244385 616.773804,2685.257568 
	C614.687805,2682.820801 616.531433,2677.461182 619.723755,2677.383057 
	C628.981323,2677.156250 638.380493,2676.480713 647.497559,2677.689697 
	C791.493591,2696.781982 931.950256,2618.944580 999.488037,2488.692871 
	C1034.236694,2421.677246 1047.694702,2350.503418 1039.253296,2275.855957 
	C1031.489624,2207.201172 1004.054138,2146.448975 957.839478,2094.742432 
	C936.008789,2070.317627 911.657898,2048.696777 883.023315,2032.256958 
	C878.492188,2029.655396 874.408630,2026.081055 870.625305,2022.431030 
	C867.561890,2019.475220 868.055115,2013.937378 871.717224,2011.973755 
	C877.496094,2008.875122 883.529968,2005.736206 889.841553,2004.223633 
	C995.371643,1978.932739 1090.593262,2000.867432 1174.662842,2068.895508 
	C1232.507446,2115.702637 1270.115967,2176.113525 1285.873535,2248.963379 
	C1299.234741,2310.734863 1295.865723,2372.052734 1275.001343,2432.059326 
	C1273.908447,2435.202148 1272.691406,2438.302002 1270.952881,2442.852783 
z"/>
<path fill="#0298CD" opacity="1.000000" stroke="none" 
	d="
M524.688843,2187.075195 
	C514.169495,2155.591309 509.464172,2124.432617 509.531616,2093.220459 
	C509.684143,2022.630005 529.796997,1957.951538 573.650879,1901.750122 
	C622.150574,1839.594604 684.872925,1799.405884 761.874695,1781.987061 
	C773.527893,1779.351074 785.451660,1777.270874 797.353271,1776.475830 
	C879.195618,1771.010132 958.205017,1782.836426 1032.716675,1818.176147 
	C1169.026367,1882.825684 1257.260742,1987.924683 1295.838989,2134.075684 
	C1299.908203,2149.491699 1302.349243,2165.341309 1305.417480,2181.014893 
	C1306.049072,2184.240967 1306.888916,2187.752441 1306.207764,2190.815430 
	C1305.556641,2193.743408 1303.545532,2197.714844 1301.206299,2198.513184 
	C1299.194702,2199.199219 1294.777954,2196.744385 1293.354248,2194.470459 
	C1289.846313,2188.867920 1287.447144,2182.571045 1284.603271,2176.552979 
	C1236.297363,2074.329346 1156.764282,2009.132202 1047.654419,1981.931152 
	C967.380798,1961.918945 888.862671,1972.261108 813.768677,2006.634521 
	C754.177063,2033.912231 705.883118,2074.636475 670.767578,2130.367188 
	C647.344727,2167.541016 632.565125,2207.884277 627.538391,2251.573242 
	C625.792297,2266.749268 625.558899,2282.093506 624.213745,2297.323730 
	C623.698242,2303.161133 622.613953,2309.108643 620.667603,2314.609619 
	C619.009338,2319.296387 612.757446,2320.765625 608.907898,2317.652832 
	C603.230469,2313.062012 597.738953,2308.152344 592.708008,2302.864990 
	C561.422913,2269.985352 539.406738,2231.577393 524.688843,2187.075195 
z"/>
<path fill="#033966" opacity="1.000000" stroke="none" 
	d="
M2453.130371,2184.375244 
	C2448.627441,2184.594971 2446.015869,2184.810059 2443.765137,2184.995605 
	C2442.609619,2186.404785 2441.096436,2187.386230 2441.067871,2188.408691 
	C2439.654053,2238.944336 2440.673828,2289.472656 2440.298096,2339.363770 
	C2448.247070,2344.752197 2455.800293,2342.662354 2462.884766,2342.674072 
	C2558.160156,2342.830811 2653.436035,2342.778809 2748.711670,2342.779053 
	C2765.368164,2342.779053 2782.025146,2342.724365 2798.681152,2342.818604 
	C2803.235596,2342.844238 2807.787598,2343.319580 2813.844482,2343.677490 
	C2812.552734,2347.586182 2812.111328,2350.808105 2810.551514,2353.341309 
	C2798.687500,2372.614990 2786.604980,2391.754150 2774.080078,2411.749512 
	C2769.952148,2412.210693 2765.439697,2413.152100 2760.926758,2413.154785 
	C2635.669189,2413.231934 2510.411621,2413.218994 2385.154053,2413.182861 
	C2381.854492,2413.181885 2378.554932,2412.759277 2375.297119,2412.536377 
	C2370.170898,2406.490234 2372.424072,2399.555176 2372.413574,2393.197021 
	C2372.264404,2303.251709 2372.312256,2213.306152 2372.312256,2123.360596 
	C2372.312256,2054.735352 2372.299805,1986.110352 2372.332031,1917.485229 
	C2372.335205,1910.949463 2372.616455,1904.413818 2372.733887,1899.367065 
	C2374.428467,1897.468872 2374.790039,1896.828857 2375.338135,1896.516479 
	C2375.886719,1896.203735 2376.622314,1896.106079 2377.275879,1896.105591 
	C2520.509277,1895.984741 2663.742432,1895.877441 2806.975830,1895.835815 
	C2808.097412,1895.835449 2809.218750,1896.731323 2810.339355,1897.211182 
	C2806.111328,1909.910278 2785.381104,1944.762817 2768.344482,1967.571411 
	C2660.525879,1967.571411 2551.990967,1967.571411 2442.868652,1967.571411 
	C2441.901367,1970.670410 2440.508789,1973.062134 2440.502930,1975.457275 
	C2440.390869,2022.094727 2440.434326,2068.732666 2440.489014,2115.370605 
	C2440.490479,2116.673828 2440.967285,2117.976807 2441.226562,2119.301025 
	C2445.213867,2124.399902 2450.925049,2122.692383 2455.990479,2122.704834 
	C2505.293701,2122.826660 2554.597168,2122.778809 2603.900635,2122.779053 
	C2659.866699,2122.779297 2715.833008,2122.752441 2771.799072,2122.815918 
	C2778.182373,2122.823242 2784.565186,2123.333252 2790.696045,2123.599121 
	C2790.696045,2126.319336 2791.180664,2127.865234 2790.624756,2128.777588 
	C2779.562256,2146.933594 2768.379883,2165.016602 2758.262451,2181.426025 
	C2755.892822,2182.996826 2755.376953,2183.463379 2754.770996,2183.704834 
	C2754.168701,2183.944824 2753.477295,2184.049316 2752.822998,2184.057129 
	C2742.834961,2184.176514 2732.846680,2184.354004 2722.858398,2184.356689 
	C2633.579590,2184.379395 2544.300537,2184.370361 2453.130371,2184.375244 
z"/>
<path fill="#043A66" opacity="1.000000" stroke="none" 
	d="
M3221.525391,1910.502319 
	C3285.578857,1935.894531 3328.200684,1981.051636 3350.607422,2043.529175 
	C3380.794922,2127.701660 3376.689941,2211.303955 3335.372070,2291.251221 
	C3305.959717,2348.161865 3260.433105,2387.326904 3198.070312,2405.450195 
	C3180.704102,2410.497314 3163.018066,2413.294922 3144.918457,2413.296875 
	C3059.638916,2413.305664 2974.359619,2413.306885 2889.080078,2413.277588 
	C2886.480469,2413.276611 2883.881104,2412.910400 2880.146973,2412.629150 
	C2879.647461,2409.351074 2878.765137,2406.253174 2878.763184,2403.154541 
	C2878.700195,2301.885254 2878.718262,2200.616211 2878.758057,2099.346924 
	C2878.759033,2097.391602 2879.167725,2095.436523 2879.506592,2092.402588 
	C2890.244141,2088.953613 2901.534668,2091.170166 2912.567627,2090.781494 
	C2923.121338,2090.409668 2933.701416,2090.784180 2944.218994,2090.830322 
	C2948.191895,2097.416992 2946.779297,2103.513916 2946.788086,2109.239990 
	C2946.895264,2179.195801 2946.812744,2249.151611 2946.925781,2319.107422 
	C2946.937256,2326.291504 2945.680420,2333.685059 2948.786865,2341.761230 
	C2953.293457,2342.072021 2957.764648,2342.643799 2962.236084,2342.648682 
	C3019.533203,2342.708496 3076.836670,2343.223633 3134.125732,2342.546631 
	C3200.993652,2341.756592 3250.657227,2310.738770 3279.552246,2251.026123 
	C3310.592773,2186.879883 3311.221436,2120.502930 3278.996826,2056.508301 
	C3249.928711,1998.781738 3201.336914,1968.330933 3135.979736,1967.852661 
	C3058.699463,1967.287231 2981.411621,1967.717407 2904.127197,1967.715942 
	C2896.849365,1967.715820 2889.571777,1967.716064 2882.118408,1967.716064 
	C2885.152100,1954.067261 2898.930176,1929.887573 2923.087646,1895.616577 
	C2928.840820,1895.616577 2935.453857,1895.616577 2942.066650,1895.616577 
	C3006.026123,1895.616577 3069.987549,1895.892456 3133.944580,1895.494263 
	C3163.607422,1895.309570 3192.289307,1899.692139 3221.525391,1910.502319 
z"/>
<path fill="#043A67" opacity="1.000000" stroke="none" 
	d="
M1908.452148,2182.268066 
	C1902.609497,2189.104736 1904.475708,2195.966797 1904.459717,2202.471436 
	C1904.306885,2265.134766 1904.368164,2327.798584 1904.368164,2390.462402 
	C1904.368042,2397.083496 1904.368164,2403.704346 1904.368164,2411.397705 
	C1892.791260,2414.957764 1881.549927,2412.846924 1870.572632,2413.233154 
	C1859.988770,2413.605469 1849.381470,2413.313721 1840.600220,2413.313721 
	C1838.324829,2411.534912 1837.700439,2411.235596 1837.373901,2410.740234 
	C1837.021973,2410.206299 1836.778198,2409.489014 1836.777588,2408.851318 
	C1836.600098,2242.876221 1836.442993,2076.900879 1836.325928,1910.925781 
	C1836.323120,1906.961182 1836.728149,1902.992554 1837.067871,1899.036377 
	C1837.113647,1898.503174 1837.897095,1898.033447 1839.151489,1896.616577 
	C1840.743286,1896.384521 1843.261475,1895.710938 1845.782837,1895.698730 
	C1864.381226,1895.608398 1882.980347,1895.649902 1902.900024,1895.649902 
	C1903.441162,1901.565430 1904.298462,1906.625244 1904.306763,1911.686279 
	C1904.401733,1969.683472 1904.367798,2027.680664 1904.368164,2085.677979 
	C1904.368164,2092.262207 1904.368164,2098.846680 1904.368164,2106.442139 
	C1908.411377,2107.162842 1911.487427,2108.188232 1914.564331,2108.190674 
	C2013.892944,2108.270752 2113.221680,2108.259521 2212.550293,2108.211914 
	C2215.135742,2108.210693 2217.720703,2107.655273 2221.692383,2107.198975 
	C2222.037109,2100.453613 2222.640869,2094.039062 2222.649414,2087.624268 
	C2222.723877,2030.960327 2222.692871,1974.296265 2222.693115,1917.632324 
	C2222.693115,1911.032837 2222.693115,1904.433350 2222.693115,1898.152222 
	C2238.642090,1894.885986 2271.871826,1894.728882 2289.582520,1897.697998 
	C2289.965820,1899.959106 2290.767334,1902.485229 2290.768311,1905.011597 
	C2290.827148,2073.613037 2290.821777,2242.214355 2290.821777,2410.555908 
	C2276.132080,2413.974365 2246.257812,2414.395752 2223.297852,2411.550049 
	C2222.083496,2401.415039 2222.850342,2390.864502 2222.723877,2380.386475 
	C2222.587158,2369.055420 2222.692871,2357.721436 2222.692871,2346.388672 
	C2222.692871,2335.722412 2222.692871,2325.056396 2222.692871,2314.390137 
	C2222.692871,2303.723877 2222.692871,2293.057861 2222.692871,2282.391602 
	C2222.692871,2271.725342 2222.692871,2261.059326 2222.692871,2250.393066 
	C2222.692871,2239.060303 2222.692871,2227.727539 2222.692871,2216.394775 
	C2222.692871,2205.815674 2222.692871,2195.236816 2222.692871,2186.025635 
	C2216.349609,2179.646484 2210.029541,2181.412109 2204.286621,2181.397461 
	C2150.289551,2181.259277 2096.291748,2181.282959 2042.294312,2181.323486 
	C1998.298096,2181.356689 1954.301758,2181.476562 1908.452148,2182.268066 
z"/>
<path fill="#043A67" opacity="1.000000" stroke="none" 
	d="
M1519.891113,2342.655273 
	C1539.012939,2340.454102 1556.274048,2338.919434 1573.278320,2335.925781 
	C1592.445190,2332.551270 1610.301147,2325.260010 1626.768555,2314.649902 
	C1647.023438,2301.599365 1661.575928,2283.777588 1671.071289,2261.851562 
	C1678.258301,2245.256348 1683.049438,2227.897949 1684.182495,2209.772949 
	C1685.302979,2191.850586 1686.520630,2173.896484 1686.579468,2155.952637 
	C1686.837524,2077.289062 1686.690918,1998.624268 1686.690918,1919.959961 
	C1686.690918,1912.691040 1686.690918,1905.422119 1686.690918,1898.471680 
	C1701.208740,1894.964844 1733.145874,1894.533081 1753.726440,1897.457642 
	C1754.092896,1902.362305 1754.810303,1907.520264 1754.814209,1912.678833 
	C1754.882080,2000.009399 1755.302979,2087.343506 1754.616211,2174.668701 
	C1754.380981,2204.566406 1751.976562,2234.439941 1744.312744,2263.715820 
	C1725.870850,2334.165039 1682.134277,2379.815186 1612.352051,2400.624512 
	C1585.351929,2408.676025 1557.732056,2412.928223 1529.643433,2413.191162 
	C1484.315552,2413.615479 1438.980591,2413.332275 1393.648804,2413.261230 
	C1390.528198,2413.256348 1387.408691,2412.532471 1382.332886,2411.898926 
	C1396.186890,2387.959229 1410.432617,2366.453613 1424.316772,2343.971680 
	C1440.126709,2341.430176 1456.070190,2343.015625 1471.919067,2342.741211 
	C1487.247559,2342.475586 1502.584106,2342.679688 1519.891113,2342.655273 
z"/>
<path fill="#10446E" opacity="1.000000" stroke="none" 
	d="
M3529.375000,2693.473145 
	C3520.915771,2692.999512 3514.210449,2692.999512 3507.665283,2691.975586 
	C3475.819336,2686.994873 3454.135498,2661.831787 3455.531250,2631.442871 
	C3456.419189,2612.098633 3465.184082,2597.193115 3481.956787,2587.253174 
	C3493.065430,2580.669922 3505.232666,2577.241943 3518.039551,2577.084473 
	C3541.988037,2576.789551 3565.943848,2577.053223 3589.895752,2577.193115 
	C3590.928711,2577.199219 3591.955078,2578.289795 3593.807617,2579.343506 
	C3591.082764,2588.244141 3586.610107,2594.041748 3575.812256,2593.601318 
	C3562.526123,2593.058838 3549.190674,2593.159424 3535.895752,2593.583496 
	C3526.622314,2593.879395 3517.251709,2594.491455 3508.152832,2596.187012 
	C3490.339355,2599.506592 3477.607178,2613.255371 3475.966797,2629.696777 
	C3474.000244,2649.402588 3483.361328,2665.360596 3501.713379,2672.130371 
	C3507.833496,2674.387939 3514.584229,2675.742432 3521.098877,2675.962891 
	C3537.031982,2676.502197 3552.995361,2676.139160 3569.617676,2676.139160 
	C3574.107422,2664.917969 3572.297607,2654.076172 3570.768066,2641.853027 
	C3549.766357,2641.620605 3529.389648,2641.395264 3508.642578,2641.165771 
	C3514.362549,2627.350098 3514.634521,2626.727051 3524.300781,2626.620361 
	C3546.227295,2626.378418 3568.158203,2626.544189 3589.887939,2626.544189 
	C3593.263672,2640.701904 3593.553223,2673.707764 3590.431396,2693.276367 
	C3570.854736,2693.342041 3551.029053,2693.408447 3529.375000,2693.473145 
z"/>
<path fill="#144670" opacity="1.000000" stroke="none" 
	d="
M3611.421387,2620.257080 
	C3611.841797,2605.096191 3610.463135,2591.801270 3612.384277,2578.825684 
	C3627.797607,2576.500488 3707.131104,2576.041992 3730.421875,2578.019775 
	C3728.445312,2590.278320 3725.760986,2593.318359 3715.029053,2593.440674 
	C3693.708740,2593.683838 3672.383057,2593.451416 3651.060791,2593.567627 
	C3645.252441,2593.599365 3639.447266,2594.172852 3633.215332,2594.521484 
	C3631.132812,2605.392334 3631.649170,2615.193115 3632.782715,2626.289551 
	C3637.466064,2626.675537 3641.854248,2627.329346 3646.245605,2627.349854 
	C3668.900879,2627.455811 3691.557373,2627.328613 3714.212402,2627.459961 
	C3718.650391,2627.485840 3723.083740,2628.293945 3729.057129,2628.895996 
	C3724.717285,2634.418945 3721.482178,2638.535400 3717.668945,2643.388184 
	C3689.872803,2643.388184 3662.025146,2643.388184 3633.566650,2643.388184 
	C3630.337158,2654.059570 3632.715088,2663.833008 3631.746094,2674.408936 
	C3649.205322,2677.720947 3665.752686,2675.667969 3682.151367,2676.038330 
	C3698.769287,2676.413818 3715.402100,2676.121094 3732.506592,2676.121094 
	C3733.014893,2684.813965 3727.268311,2688.451172 3722.930420,2692.561035 
	C3694.739014,2694.506592 3628.526611,2693.960938 3611.884766,2691.519775 
	C3610.906250,2679.942871 3611.563232,2668.043457 3611.445068,2656.188965 
	C3611.332031,2644.862305 3611.420898,2633.533447 3611.421387,2620.257080 
z"/>
<path fill="#184A73" opacity="1.000000" stroke="none" 
	d="
M3095.873535,2627.352051 
	C3113.823730,2627.504639 3129.783691,2627.645264 3145.742432,2627.863037 
	C3146.258545,2627.870117 3146.764404,2628.663818 3148.393311,2630.026123 
	C3145.855957,2633.923096 3143.203613,2637.996826 3140.056152,2642.831055 
	C3111.406982,2643.046875 3082.965332,2643.260986 3054.047363,2643.478760 
	C3051.978516,2654.612793 3052.277100,2664.354004 3053.674072,2674.715820 
	C3070.254883,2677.440430 3086.847656,2675.690674 3103.347900,2676.001953 
	C3119.959961,2676.315674 3136.582520,2676.070801 3153.383789,2676.070801 
	C3150.129883,2689.524170 3147.158936,2693.394531 3137.954102,2693.433838 
	C3104.685791,2693.575684 3071.415771,2693.285156 3038.146729,2693.059082 
	C3036.965088,2693.051025 3035.790527,2691.997803 3034.613281,2691.430420 
	C3032.482666,2676.862793 3032.054443,2601.774170 3034.076416,2579.152344 
	C3036.779053,2578.462891 3039.823486,2577.021973 3042.874023,2577.009277 
	C3078.149902,2576.862061 3113.427002,2576.919922 3148.703613,2576.987793 
	C3149.910645,2576.990234 3151.116455,2577.668213 3152.322510,2578.032959 
	C3148.131836,2591.931152 3146.677002,2593.409668 3134.207031,2593.527100 
	C3113.574951,2593.721191 3092.939209,2593.500732 3072.306641,2593.648926 
	C3066.480957,2593.690674 3060.660156,2594.407715 3053.581543,2594.903076 
	C3053.227295,2601.100098 3052.739990,2606.205078 3052.702148,2611.313232 
	C3052.668945,2615.802734 3053.138916,2620.296143 3053.451172,2625.955811 
	C3067.608398,2628.481689 3080.817871,2626.847412 3095.873535,2627.352051 
z"/>
<path fill="#154871" opacity="1.000000" stroke="none" 
	d="
M4160.799805,2681.356201 
	C4155.990723,2688.847900 4151.850586,2693.907227 4142.833984,2693.744629 
	C4111.527832,2693.179932 4080.204590,2693.544434 4048.888672,2693.425049 
	C4046.345947,2693.415283 4043.806885,2692.414062 4040.749023,2691.763428 
	C4040.749023,2654.157227 4040.749023,2616.975098 4040.749023,2580.322266 
	C4041.891602,2579.364990 4042.377441,2578.901855 4042.919922,2578.518799 
	C4043.445801,2578.147705 4044.028076,2577.577881 4044.588623,2577.574219 
	C4081.219971,2577.330322 4117.851562,2577.117432 4154.482910,2576.987549 
	C4156.280273,2576.981201 4158.081055,2577.735107 4161.104004,2578.407227 
	C4157.715332,2587.604492 4153.475586,2593.781006 4142.839844,2593.623291 
	C4122.854980,2593.326660 4102.862305,2593.543701 4082.873047,2593.546631 
	C4076.244873,2593.547607 4069.616699,2593.546631 4062.523682,2593.546631 
	C4058.076904,2604.562988 4060.006104,2614.914551 4060.777832,2626.177979 
	C4071.530762,2628.404785 4082.077637,2627.111084 4092.501953,2627.338135 
	C4102.491699,2627.555908 4112.490234,2627.385010 4122.484863,2627.385010 
	C4133.053223,2627.385010 4143.621094,2627.385010 4154.552734,2627.385010 
	C4151.501953,2636.536377 4151.501953,2636.536377 4145.136230,2643.307129 
	C4118.208008,2643.307129 4090.327637,2643.307129 4061.999512,2643.307129 
	C4057.858154,2653.737305 4061.127686,2663.618408 4059.451660,2674.347656 
	C4065.046387,2675.027344 4069.455811,2676.002197 4073.870361,2676.027100 
	C4100.521973,2676.177002 4127.174805,2676.072998 4153.827148,2676.166748 
	C4156.796875,2676.177246 4160.735352,2674.999756 4160.799805,2681.356201 
z"/>
<path fill="#144670" opacity="1.000000" stroke="none" 
	d="
M1568.176758,2685.537109 
	C1568.142456,2669.873535 1568.142456,2655.934570 1568.142456,2640.923828 
	C1573.498535,2640.346191 1577.885864,2639.494873 1582.279053,2639.464111 
	C1602.924683,2639.318604 1623.577148,2639.669922 1644.216064,2639.269043 
	C1652.805664,2639.102051 1661.445312,2637.928955 1669.910034,2636.382080 
	C1674.354248,2635.569580 1678.873779,2633.567871 1682.659180,2631.050537 
	C1693.901733,2623.573730 1693.769653,2608.292236 1682.137329,2601.243896 
	C1677.193848,2598.248535 1671.125488,2596.325928 1665.361816,2595.633301 
	C1654.169922,2594.288330 1642.837769,2593.777100 1631.553467,2593.606934 
	C1611.689819,2593.307129 1591.818359,2593.523193 1570.429932,2593.523193 
	C1571.409546,2585.613281 1576.116211,2582.135986 1579.305786,2578.571533 
	C1581.441772,2577.894043 1582.681641,2577.162354 1583.925293,2577.156250 
	C1609.231934,2577.031738 1634.549805,2576.551025 1659.840576,2577.165527 
	C1668.989014,2577.387451 1678.396973,2579.289062 1687.114502,2582.160889 
	C1702.563477,2587.249756 1711.100098,2598.811768 1711.671875,2615.100830 
	C1712.222534,2630.790039 1704.012695,2641.466553 1690.007812,2647.901123 
	C1686.423096,2649.547852 1682.734009,2650.967285 1678.036865,2652.933350 
	C1689.677612,2667.689697 1705.253784,2677.047852 1717.966553,2691.079346 
	C1709.778320,2695.239746 1701.976562,2692.999756 1693.765259,2693.188477 
	C1680.616211,2681.262939 1667.330078,2669.213135 1653.358398,2656.541504 
	C1632.849976,2656.541504 1611.693726,2656.541504 1589.628662,2656.541504 
	C1585.499634,2668.097168 1589.838379,2680.335205 1586.497070,2692.981445 
	C1581.610474,2692.981445 1577.023315,2693.518311 1572.681274,2692.720215 
	C1570.916382,2692.395752 1569.685181,2689.168213 1568.176758,2685.537109 
z"/>
<path fill="#0F426D" opacity="1.000000" stroke="none" 
	d="
M1498.932861,2641.447021 
	C1488.698975,2627.599121 1481.931396,2612.979492 1469.542847,2600.823242 
	C1448.501709,2631.751953 1427.970703,2661.931152 1407.793945,2691.589355 
	C1399.937378,2694.621582 1393.026245,2693.437012 1383.974976,2692.419189 
	C1386.255615,2688.514404 1387.353271,2686.353760 1388.703857,2684.364746 
	C1409.996826,2653.006104 1431.294067,2621.650391 1452.676392,2590.352783 
	C1455.292236,2586.523926 1458.075684,2582.701172 1461.359253,2579.461182 
	C1466.807007,2574.085938 1475.564819,2574.373535 1481.110962,2579.794434 
	C1482.988281,2581.629395 1484.558228,2583.827148 1486.033813,2586.017334 
	C1508.328369,2619.107666 1530.593628,2652.217773 1552.818237,2685.354736 
	C1553.900635,2686.968750 1554.545532,2688.876221 1556.049805,2692.015625 
	C1542.415283,2694.737305 1529.242310,2693.117432 1516.227661,2693.388916 
	C1502.261108,2693.680176 1488.283447,2693.491943 1474.310913,2693.443604 
	C1461.137451,2693.397949 1447.947998,2693.664307 1436.043579,2693.310547 
	C1434.427856,2691.361328 1433.555420,2690.572266 1433.663452,2690.400879 
	C1436.468506,2685.948975 1439.375732,2681.561768 1442.934570,2676.144043 
	C1467.895386,2676.144043 1492.924927,2676.144043 1518.923950,2676.144043 
	C1518.202637,2667.544678 1512.760254,2663.122314 1509.593262,2657.652588 
	C1506.599365,2652.482666 1503.039917,2647.640381 1498.932861,2641.447021 
z"/>
<path fill="#0F426D" opacity="1.000000" stroke="none" 
	d="
M2356.264648,2693.453857 
	C2341.808350,2693.453613 2329.300049,2693.453613 2316.403809,2693.453613 
	C2319.478760,2683.582275 2319.456787,2683.565186 2327.625977,2675.548584 
	C2350.440430,2675.548584 2374.356201,2675.555420 2398.271729,2675.485107 
	C2398.626221,2675.484131 2398.978271,2674.526367 2399.331299,2674.015381 
	C2393.595703,2659.254395 2375.715088,2631.054199 2353.256348,2601.536621 
	C2350.515137,2604.305420 2347.417969,2606.631104 2345.342773,2609.657471 
	C2330.310059,2631.581299 2315.489014,2653.650146 2300.587158,2675.663818 
	C2296.879395,2681.140869 2293.122070,2686.584473 2289.196777,2692.322266 
	C2281.998047,2693.569580 2275.041748,2694.426514 2266.273193,2691.759277 
	C2268.931152,2687.408203 2270.756348,2684.114014 2272.866943,2681.014160 
	C2293.812744,2650.250488 2314.720947,2619.460449 2335.818115,2588.800781 
	C2348.430664,2570.471436 2357.555420,2570.568848 2370.166504,2589.238037 
	C2391.372559,2620.630371 2412.352295,2652.175537 2433.399658,2683.675049 
	C2434.849121,2685.843994 2436.072754,2688.163818 2437.308105,2690.255127 
	C2436.520508,2691.187012 2436.155029,2691.765381 2435.651367,2692.173096 
	C2435.170166,2692.562500 2434.546875,2693.024170 2433.983154,2693.027832 
	C2408.726562,2693.199463 2383.469482,2693.323975 2356.264648,2693.453857 
z"/>
<path fill="#184A73" opacity="1.000000" stroke="none" 
	d="
M3818.462402,2629.558594 
	C3830.166016,2641.162598 3840.631104,2652.027100 3854.120361,2662.333740 
	C3857.522217,2651.840576 3855.664307,2642.637939 3856.011963,2633.703125 
	C3856.348145,2625.063721 3856.084717,2616.400635 3856.084717,2607.748047 
	C3856.084717,2598.498779 3856.084717,2589.249268 3856.084717,2580.492676 
	C3862.452393,2575.508301 3867.827881,2576.120117 3873.083008,2578.906982 
	C3873.805176,2580.628174 3874.735596,2581.816895 3874.742188,2583.010986 
	C3874.918457,2614.952393 3875.028076,2646.893799 3875.046143,2678.835449 
	C3875.047607,2681.445312 3874.649902,2684.161377 3873.862061,2686.645508 
	C3871.750244,2693.305176 3863.303955,2696.552246 3857.635010,2692.330811 
	C3851.266113,2687.588135 3845.451660,2682.054443 3839.674316,2676.571533 
	C3817.478760,2655.507080 3795.405029,2634.314697 3773.250732,2613.206543 
	C3771.405273,2611.448486 3769.298340,2609.964844 3767.501221,2608.506348 
	C3766.342285,2609.118164 3765.673828,2609.338623 3765.189209,2609.766846 
	C3764.765869,2610.140137 3764.280518,2610.747070 3764.279785,2611.251709 
	C3764.236328,2637.802979 3764.241455,2664.354248 3764.241455,2690.195312 
	C3757.435303,2694.760254 3751.921875,2694.426758 3744.881592,2690.693359 
	C3744.881592,2684.628906 3744.881592,2678.103516 3744.881592,2671.578369 
	C3744.882080,2647.617188 3744.849854,2623.655762 3744.911865,2599.694580 
	C3744.923828,2595.049316 3744.789551,2590.310303 3745.621826,2585.779785 
	C3747.352783,2576.357666 3755.976562,2572.639160 3763.590332,2578.118164 
	C3768.416016,2581.590820 3772.627930,2585.943604 3776.970459,2590.054199 
	C3790.495850,2602.856934 3803.952637,2615.731934 3818.462402,2629.558594 
z"/>
<path fill="#0F426D" opacity="1.000000" stroke="none" 
	d="
M2821.500977,2638.673828 
	C2830.270752,2646.810791 2838.006104,2653.957520 2845.297852,2660.694092 
	C2850.769043,2659.537598 2850.441162,2655.877197 2850.459473,2652.726318 
	C2850.567871,2634.062500 2850.480713,2615.397949 2850.585449,2596.734131 
	C2850.618652,2590.826416 2851.039795,2584.920654 2851.318604,2578.158691 
	C2856.628662,2577.776123 2861.079102,2577.455322 2866.353027,2577.075439 
	C2867.128662,2580.718994 2868.352295,2583.828857 2868.367188,2586.944336 
	C2868.513916,2617.606445 2868.464600,2648.269531 2868.451904,2678.932373 
	C2868.451172,2680.928467 2868.464111,2682.948486 2868.184326,2684.916748 
	C2867.170410,2692.047607 2859.531494,2696.322754 2853.253418,2692.911377 
	C2849.825928,2691.049072 2846.771484,2688.331787 2843.913086,2685.616211 
	C2821.213623,2664.052002 2798.575928,2642.422607 2775.984131,2620.745605 
	C2771.287598,2616.239258 2766.556396,2611.857178 2759.908203,2607.105469 
	C2756.193359,2615.479736 2757.799072,2622.716797 2757.508301,2629.615234 
	C2757.227783,2636.269287 2757.447510,2642.944580 2757.447510,2649.610352 
	C2757.447510,2656.942871 2757.447510,2664.275146 2757.447510,2671.607666 
	C2757.447510,2678.163818 2757.447510,2684.719727 2757.447510,2692.305420 
	C2751.639648,2692.637207 2747.246094,2692.888184 2743.333984,2693.111572 
	C2742.052490,2691.351807 2740.645752,2690.320312 2740.638672,2689.279297 
	C2740.410400,2655.957764 2740.315674,2622.635010 2740.211426,2589.312500 
	C2740.207275,2587.980957 2740.209473,2586.636475 2740.374268,2585.318848 
	C2741.398682,2577.122803 2749.512451,2572.989014 2756.691650,2577.244385 
	C2759.507324,2578.913086 2761.953369,2581.291748 2764.340088,2583.584229 
	C2783.080322,2601.584961 2801.765137,2619.643311 2821.500977,2638.673828 
z"/>
<path fill="#144670" opacity="1.000000" stroke="none" 
	d="
M3897.016357,2662.360840 
	C3890.806152,2649.418213 3888.267822,2637.569092 3890.545166,2624.452393 
	C3893.790039,2605.763184 3904.491943,2593.221191 3920.594238,2584.764648 
	C3930.092041,2579.776611 3940.510254,2577.119873 3951.263184,2577.032227 
	C3975.186523,2576.836914 3999.113770,2577.037109 4023.038574,2577.180176 
	C4024.062744,2577.186279 4025.080566,2578.230957 4026.859131,2579.208252 
	C4024.205322,2588.152832 4019.441895,2593.854004 4008.962891,2593.589600 
	C3996.342285,2593.270996 3983.697998,2593.220459 3971.082275,2593.625977 
	C3961.821777,2593.923828 3952.418701,2594.289307 3943.379883,2596.114502 
	C3919.091064,2601.019531 3905.413330,2622.297363 3911.154785,2644.740234 
	C3913.792236,2655.050781 3919.907715,2662.463379 3929.021973,2667.549561 
	C3939.702393,2673.509521 3951.287842,2676.042969 3963.440918,2676.085938 
	C3980.721924,2676.147217 3998.003174,2676.083008 4015.284424,2676.146973 
	C4018.972900,2676.160645 4022.660400,2676.493408 4027.840088,2676.754150 
	C4025.583496,2684.347168 4021.476562,2688.440430 4016.644287,2692.927490 
	C3995.280762,2692.927490 3973.392822,2693.284180 3951.521484,2692.828857 
	C3928.781982,2692.355713 3910.605713,2682.751465 3897.016357,2662.360840 
z"/>
<path fill="#144670" opacity="1.000000" stroke="none" 
	d="
M2107.678711,2617.108154 
	C2105.997314,2622.385010 2104.363281,2626.160889 2104.077881,2630.036133 
	C2102.572510,2650.476807 2111.631592,2665.062012 2131.093018,2671.267822 
	C2140.442627,2674.249512 2150.595215,2675.461182 2160.456543,2675.919922 
	C2176.399414,2676.661865 2192.402100,2676.080811 2208.378906,2676.152100 
	C2212.092529,2676.168701 2215.804688,2676.562500 2220.650146,2676.850098 
	C2219.495117,2684.791260 2215.128174,2688.643311 2210.381348,2692.575684 
	C2187.345703,2692.575684 2164.117432,2692.844727 2140.899902,2692.470459 
	C2127.885986,2692.260742 2116.298340,2687.150635 2105.872314,2679.505127 
	C2073.736572,2655.939209 2074.798584,2602.225830 2115.631348,2584.143311 
	C2125.473145,2579.784912 2135.745361,2577.052490 2146.521484,2576.989014 
	C2169.820312,2576.851562 2193.121094,2576.963867 2216.420654,2577.072021 
	C2217.533203,2577.077148 2218.641846,2578.027344 2220.828613,2579.031982 
	C2217.705078,2587.579834 2213.491211,2593.877197 2202.853760,2593.589111 
	C2190.879639,2593.264404 2178.885010,2593.320312 2166.908447,2593.593018 
	C2158.950195,2593.774170 2150.992432,2594.470947 2143.060547,2595.212646 
	C2128.335938,2596.589844 2116.347168,2602.775146 2107.678711,2617.108154 
z"/>
<path fill="#144670" opacity="1.000000" stroke="none" 
	d="
M1964.083252,2576.929688 
	C1988.026611,2576.929932 2009.991089,2576.929932 2031.991577,2576.929932 
	C2031.146606,2588.843018 2027.542236,2593.223877 2017.514526,2593.416260 
	C2000.869263,2593.736084 1984.213745,2593.508545 1967.562500,2593.526123 
	C1960.902344,2593.532959 1954.232788,2593.378662 1947.585938,2593.690430 
	C1944.412354,2593.839111 1941.281982,2594.905029 1937.442261,2595.697998 
	C1937.442261,2606.173828 1937.442261,2615.980469 1937.442261,2626.529297 
	C1952.609863,2629.782715 1967.849121,2627.651611 1982.942139,2628.040527 
	C1997.429932,2628.414062 2011.935059,2628.121094 2026.819458,2628.121094 
	C2022.083984,2643.132080 2021.045166,2644.388672 2009.992554,2644.531738 
	C1991.346436,2644.773193 1972.693970,2644.511719 1954.045898,2644.656982 
	C1948.915527,2644.696777 1943.790527,2645.428711 1937.969727,2645.898926 
	C1934.784058,2661.824219 1938.265747,2677.219482 1935.519897,2692.439941 
	C1929.175659,2692.439941 1923.466309,2692.439941 1917.906738,2692.439941 
	C1915.785522,2676.028809 1915.365601,2601.868408 1917.229004,2579.034668 
	C1920.676758,2578.372314 1924.393555,2577.129639 1928.138428,2577.038086 
	C1939.454590,2576.761719 1950.781616,2576.932617 1964.083252,2576.929688 
z"/>
<path fill="#154871" opacity="1.000000" stroke="none" 
	d="
M1863.889526,2579.161865 
	C1860.628784,2590.804688 1853.315674,2594.298828 1842.621216,2593.707764 
	C1830.094238,2593.014893 1817.499756,2593.545898 1803.881592,2593.545898 
	C1802.972412,2599.144043 1801.690918,2603.505859 1801.650024,2607.879395 
	C1801.438599,2630.503662 1801.544189,2653.131104 1801.539795,2675.757324 
	C1801.538818,2680.954834 1801.539673,2686.152344 1801.539673,2692.427734 
	C1794.432617,2692.427734 1788.797974,2692.427734 1781.763428,2692.427734 
	C1781.458496,2688.119629 1780.971924,2684.346436 1780.960083,2680.571777 
	C1780.887573,2657.280029 1780.990356,2633.987793 1780.868164,2610.696533 
	C1780.841064,2605.525635 1780.146362,2600.358154 1779.694458,2594.326904 
	C1760.583130,2592.434082 1742.124756,2594.647461 1721.434448,2592.637939 
	C1726.373779,2586.125732 1729.774414,2581.642334 1733.364868,2576.908691 
	C1766.551758,2576.908691 1799.118164,2576.837158 1831.683838,2576.949463 
	C1842.293457,2576.985840 1852.901611,2577.500977 1863.889526,2579.161865 
z"/>
<path fill="#0F426D" opacity="1.000000" stroke="none" 
	d="
M2909.402832,2576.991211 
	C2947.166992,2577.178955 2983.099121,2577.362305 3019.030762,2577.608887 
	C3019.415771,2577.611572 3019.794678,2578.443115 3020.905273,2579.737305 
	C3018.255127,2588.318848 3013.348633,2593.814697 3002.860840,2593.534180 
	C2988.940918,2593.161621 2975.003174,2593.442139 2959.897949,2593.442139 
	C2958.972900,2598.771729 2957.609131,2603.113281 2957.565918,2607.468262 
	C2957.341064,2630.102295 2957.452881,2652.739502 2957.447998,2675.375732 
	C2957.446777,2680.598145 2957.447510,2685.820801 2957.447510,2692.208984 
	C2951.199951,2692.623291 2946.196289,2692.955322 2941.035400,2693.297607 
	C2940.026123,2690.720215 2938.755371,2688.973877 2938.743652,2687.218994 
	C2938.579102,2662.587158 2938.650635,2637.953857 2938.504395,2613.322021 
	C2938.469727,2607.494873 2937.842773,2601.671387 2937.458740,2595.359375 
	C2927.416504,2592.112549 2918.085205,2593.815674 2908.972412,2593.520264 
	C2899.752441,2593.221680 2890.514893,2593.454346 2879.572998,2593.454346 
	C2883.643311,2582.761475 2888.265625,2575.949463 2899.584717,2576.962891 
	C2902.226318,2577.199463 2904.907715,2576.993408 2909.402832,2576.991211 
z"/>
<path fill="#144670" opacity="1.000000" stroke="none" 
	d="
M3264.562744,2693.438965 
	C3231.729248,2693.503662 3200.595215,2693.503662 3169.725098,2693.503662 
	C3166.922852,2678.068115 3166.421143,2600.745117 3168.777588,2579.026123 
	C3174.271484,2576.091553 3179.773926,2575.926514 3186.604004,2579.908203 
	C3187.931885,2610.928467 3186.176270,2642.624023 3187.566162,2674.940674 
	C3198.553467,2677.081787 3208.465332,2675.884277 3218.264893,2676.074219 
	C3228.897705,2676.280518 3239.539307,2676.016357 3250.174561,2676.151855 
	C3259.848145,2676.275146 3269.604248,2675.474365 3279.579590,2676.882568 
	C3275.375244,2688.506104 3275.288086,2688.437256 3264.562744,2693.438965 
z"/>
<path fill="#144670" opacity="1.000000" stroke="none" 
	d="
M2551.200195,2692.803223 
	C2517.756592,2693.232910 2485.871582,2693.154297 2453.986816,2692.964355 
	C2452.815430,2692.957520 2451.650391,2691.863281 2450.482910,2691.274902 
	C2448.513672,2676.009033 2448.292969,2599.726562 2450.162109,2580.247803 
	C2450.557861,2579.713867 2450.894775,2578.775146 2451.358154,2578.708252 
	C2456.403564,2577.977051 2461.468750,2577.382080 2466.551270,2576.747070 
	C2467.817871,2579.741455 2469.173340,2581.467529 2469.189209,2583.205566 
	C2469.406006,2607.124268 2469.388916,2631.044922 2469.548340,2654.964355 
	C2469.591309,2661.436279 2470.031250,2667.905518 2470.340332,2675.665039 
	C2501.660645,2676.761719 2531.871582,2675.576416 2563.808594,2676.428711 
	C2560.989258,2684.128418 2557.442871,2688.568359 2551.200195,2692.803223 
z"/>
<path fill="#144670" opacity="1.000000" stroke="none" 
	d="
M3292.944092,2616.249023 
	C3293.446533,2602.492188 3291.763916,2590.554932 3294.244385,2577.947266 
	C3300.122070,2577.947266 3305.160645,2577.947266 3310.479492,2577.947266 
	C3311.222900,2580.087158 3312.371094,2581.868164 3312.383301,2583.656982 
	C3312.542969,2606.930908 3312.543213,2630.206055 3312.578125,2653.480713 
	C3312.588135,2660.093506 3312.579590,2666.706543 3312.579590,2674.485352 
	C3317.773193,2675.095459 3322.108154,2676.016602 3326.448975,2676.045654 
	C3349.058838,2676.196289 3371.669922,2676.094482 3394.280762,2676.148438 
	C3397.961914,2676.157227 3401.642334,2676.505615 3406.728516,2676.770020 
	C3402.254150,2688.777588 3396.242188,2694.123291 3384.104736,2693.756348 
	C3358.192627,2692.972412 3332.240234,2693.563721 3306.304932,2693.469727 
	C3302.436035,2693.455811 3298.569824,2692.779541 3295.239990,2692.460938 
	C3294.262939,2690.319580 3293.283936,2689.166992 3293.275146,2688.007080 
	C3293.098145,2664.738770 3293.031982,2641.469482 3292.944092,2616.249023 
z"/>
<path fill="#184A73" opacity="1.000000" stroke="none" 
	d="
M3419.368164,2601.290527 
	C3419.368408,2592.898682 3419.368408,2586.340576 3419.368408,2580.217773 
	C3425.690674,2575.566162 3431.229004,2576.409424 3436.822754,2578.521973 
	C3439.697510,2592.473633 3440.325439,2665.738281 3437.675293,2692.428467 
	C3432.318848,2692.749756 3426.721191,2693.085693 3419.712158,2693.506104 
	C3419.047119,2677.019043 3419.458740,2661.892090 3419.384277,2646.787354 
	C3419.312500,2632.233398 3419.368408,2617.678711 3419.368164,2601.290527 
z"/>
<path fill="#184A73" opacity="1.000000" stroke="none" 
	d="
M2067.116699,2593.535889 
	C2067.116699,2627.060791 2067.116699,2658.764404 2067.116699,2689.810791 
	C2061.204834,2695.395020 2055.353760,2693.557129 2049.679443,2692.537354 
	C2048.904297,2691.280518 2047.650757,2690.195312 2047.647705,2689.106445 
	C2047.545776,2652.769531 2047.563354,2616.432129 2047.563354,2580.190430 
	C2053.375977,2575.388428 2058.996094,2576.622314 2065.709229,2578.625488 
	C2066.157715,2582.794434 2066.637207,2587.254395 2067.116699,2593.535889 
z"/>
<path fill="#033966" opacity="1.000000" stroke="none" 
	d="
M2234.713379,2639.945801 
	C2234.792480,2619.395752 2234.839111,2600.823242 2235.029053,2582.251709 
	C2235.040771,2581.100830 2236.180664,2579.961670 2237.091553,2578.266602 
	C2241.785645,2578.266602 2246.753906,2578.266602 2251.575684,2578.266602 
	C2253.714355,2594.511475 2254.136719,2663.023682 2252.325195,2691.494141 
	C2247.226318,2694.113525 2241.807129,2694.035400 2234.826416,2690.960205 
	C2234.576172,2674.879150 2234.776367,2658.397217 2234.713379,2639.945801 
z"/>
<path fill="#10446E" opacity="1.000000" stroke="none" 
	d="
M2720.444092,2685.663086 
	C2718.913818,2689.299805 2717.657715,2692.490723 2715.885010,2692.809814 
	C2711.508789,2693.597412 2706.895752,2693.068115 2702.620850,2693.068115 
	C2699.558594,2676.853027 2699.197266,2598.849854 2701.942383,2578.899170 
	C2707.255615,2575.938721 2712.792969,2576.541260 2718.077393,2578.263428 
	C2718.958984,2580.062988 2720.008057,2581.210205 2720.015625,2582.364258 
	C2720.235107,2616.212646 2720.350830,2650.061768 2720.444092,2685.663086 
z"/>
<path fill="#10446E" opacity="1.000000" stroke="none" 
	d="
M1896.491455,2663.534912 
	C1896.491577,2674.009033 1896.491577,2682.561279 1896.491577,2692.269775 
	C1889.743896,2692.269775 1884.109741,2692.269775 1878.702759,2692.269775 
	C1877.814575,2690.813721 1876.610107,2689.758057 1876.604126,2688.695557 
	C1876.408447,2654.226807 1876.309326,2619.757568 1876.281738,2585.288330 
	C1876.280273,2583.399414 1877.019043,2581.509766 1877.454712,2579.421875 
	C1882.978638,2575.640381 1888.563965,2576.705322 1894.522339,2578.393066 
	C1895.190796,2580.400635 1896.313110,2582.215820 1896.323242,2584.037354 
	C1896.467651,2609.895264 1896.461426,2635.754150 1896.491455,2663.534912 
z"/>
<path fill="#FAFBFC" opacity="1.000000" stroke="none" 
	d="
M3610.077881,2286.090332 
	C3600.639404,2300.736572 3592.021729,2314.185059 3582.756836,2328.643066 
	C3563.778076,2329.662842 3544.617432,2329.333984 3525.880127,2328.789307 
	C3521.847412,2322.679688 3526.781982,2319.380859 3529.005615,2315.904541 
	C3568.493164,2254.171631 3608.178223,2192.565430 3647.821533,2130.932129 
	C3675.573242,2087.787354 3703.286377,2044.617554 3731.125244,2001.529053 
	C3734.722656,1995.960938 3738.431885,1990.288940 3743.017822,1985.567139 
	C3760.630371,1967.432861 3784.197510,1968.372559 3800.494385,1987.620239 
	C3803.490479,1991.158813 3805.910156,1995.209351 3808.405518,1999.144531 
	C3874.759277,2103.793457 3941.095703,2208.453125 4007.393311,2313.137207 
	C4010.141846,2317.477051 4013.500977,2321.603760 4014.911377,2326.889160 
	C3996.536377,2330.263428 3764.317383,2331.701416 3672.764648,2329.143066 
	C3669.693848,2329.057129 3666.638916,2328.411621 3664.510254,2328.144531 
	C3663.696289,2325.963623 3663.072510,2325.086670 3663.288086,2324.754639 
	C3671.982910,2311.364990 3680.753418,2298.024170 3689.174561,2285.194824 
	C3696.802979,2281.334229 3704.267090,2282.891113 3711.480713,2282.876465 
	C3774.143311,2282.750244 3836.805908,2282.803711 3899.468750,2282.803711 
	C3905.988037,2282.803711 3912.507324,2282.803711 3918.911377,2282.803711 
	C3921.822510,2275.328125 3917.015381,2271.510498 3914.431885,2267.365479 
	C3879.896484,2211.965088 3845.185303,2156.674072 3810.526367,2101.350342 
	C3800.270020,2084.978760 3790.074463,2068.568848 3779.776367,2052.223633 
	C3776.959473,2047.752563 3773.873291,2043.451172 3770.750488,2038.835083 
	C3763.425537,2041.822144 3761.420898,2048.644531 3758.022217,2053.962891 
	C3708.873291,2130.870605 3659.907959,2207.895508 3610.077881,2286.090332 
z"/>
<path fill="#F0F4F6" opacity="1.000000" stroke="none" 
	d="
M4094.961914,2306.931396 
	C4094.961670,2314.753174 4094.961670,2320.704834 4094.961670,2326.385010 
	C4080.633789,2330.163086 4061.846191,2330.473633 4043.184570,2327.493896 
	C4042.763428,2327.029541 4042.235352,2326.621826 4041.950684,2326.084961 
	C4041.646484,2325.511719 4041.419678,2324.816406 4041.418945,2324.174072 
	C4041.290039,2211.707764 4041.180420,2099.241699 4041.112061,1986.775513 
	C4041.110840,1984.806885 4041.545410,1982.823608 4041.934570,1980.878540 
	C4042.047363,1980.313721 4042.708740,1979.858765 4044.265381,1977.940552 
	C4051.315186,1976.014404 4059.943115,1977.295898 4068.412842,1977.085083 
	C4076.299316,1976.888672 4084.194336,1977.043213 4091.846436,1977.043213 
	C4096.646484,1985.038696 4094.862549,1992.520386 4094.871826,1999.578369 
	C4095.003662,2101.405762 4094.962158,2203.233398 4094.961914,2306.931396 
z"/>
</svg>